<svg width="264" height="87" viewBox="0 0 264 87" fill="none" xmlns="http://www.w3.org/2000/svg">
<path d="M105.494 20.5171L95.3743 4.95728L74.0898 39.5159L51.4258 6.51455L23.7856 51.6108H42.5304L51.5934 37.1021L59.6638 51.6108H86.6207L105.494 20.5171Z" fill="#007C94"/>
<path d="M105.494 53.168V66.4827H14.542L22.8186 53.168H105.494Z" fill="#31954C"/>
<path d="M32.4618 68.0271L23.4375 82.7174H4.44775L13.5881 68.0271H32.4618Z" fill="#007C94"/>
<path d="M126.444 19.8943L135.674 32.1838L144.905 19.8943H150.848V51.6109H144.634V29.9906L135.764 41.4756H135.584L126.714 29.9906V51.6109H120.5V19.8943H126.444Z" fill="#007C94"/>
<path d="M164.037 52.1559C161.432 52.1559 159.421 51.507 158.003 50.1963C156.585 48.8856 155.876 47.1467 155.876 44.9665C155.876 42.916 156.611 41.2939 158.08 40.074C159.55 38.8541 161.819 38.0106 164.875 37.5305L171.101 36.5701V36.3495C171.101 34.0525 169.709 32.9105 166.924 32.9105C164.32 32.9105 162.889 33.8708 162.618 35.7655H156.405C156.611 33.4686 157.565 31.5479 159.241 30.0036C160.93 28.4593 163.469 27.6807 166.873 27.6807C170.276 27.6807 172.79 28.4463 174.505 29.9647C176.219 31.483 177.083 33.6243 177.083 36.4014V47.4322C177.083 49.1841 177.302 50.5856 177.754 51.6368H171.669C171.669 51.6368 171.604 51.533 171.578 51.3254C171.552 51.1177 171.514 50.7933 171.462 50.365C171.424 49.9368 171.398 49.4956 171.398 49.0543C169.954 51.1437 167.492 52.1819 164.037 52.1819V52.1559ZM171.088 41.1252L165.506 42.0595C163.134 42.4748 161.948 43.3832 161.948 44.8107C161.948 46.4329 163.121 47.2505 165.455 47.2505C167.26 47.2505 168.652 46.7833 169.632 45.8359C170.611 44.8886 171.101 43.6298 171.101 42.0725V41.1382L171.088 41.1252Z" fill="#007C94"/>
<path d="M190.967 52.1559C184.638 52.1559 181.273 49.4436 180.899 44.0321H187.293C187.358 44.9015 187.693 45.6153 188.338 46.1993C188.969 46.7832 189.91 47.0688 191.161 47.0688C192.411 47.0688 193.249 46.8741 193.868 46.4848C194.487 46.0955 194.796 45.5764 194.796 44.9275C194.796 44.2137 194.358 43.6817 193.469 43.3443C192.579 43.0069 191.509 42.7213 190.246 42.5137C188.982 42.3061 187.719 42.0206 186.455 41.6702C185.192 41.3198 184.109 40.619 183.219 39.5679C182.33 38.5297 181.892 37.1411 181.892 35.4151C181.892 33.2479 182.755 31.4051 184.47 29.9257C186.185 28.4333 188.428 27.6936 191.212 27.6936C194.384 27.6936 196.73 28.4982 198.264 30.1074C199.798 31.7166 200.636 33.5464 200.752 35.5968H194.667C194.603 34.7922 194.281 34.1174 193.675 33.5853C193.069 33.0532 192.231 32.7807 191.174 32.7807C190.168 32.7807 189.382 33.0013 188.827 33.4296C188.26 33.8578 187.989 34.4029 187.989 35.0647C187.989 35.7785 188.428 36.2976 189.317 36.635C190.207 36.9594 191.277 37.219 192.54 37.4136C193.804 37.6083 195.054 37.8808 196.318 38.2442C197.581 38.6075 198.651 39.3213 199.541 40.3854C200.43 41.4496 200.868 42.8901 200.868 44.6679C200.868 46.8481 199.992 48.639 198.226 50.0535C196.459 51.4681 194.062 52.1688 191.019 52.1688L190.967 52.1559Z" fill="#007C94"/>
<path d="M215.862 45.9917V51.4811C215.153 51.6628 214.16 51.7536 212.884 51.7536C208.114 51.7536 205.742 49.3658 205.742 44.6031V33.209H202.596V28.1998H205.742V22.3989H212.046V28.1998H215.914V33.209H212.046V43.9283C212.046 45.4467 212.832 46.2123 214.392 46.2123L215.862 45.9917Z" fill="#007C94"/>
<path d="M240.936 41.7481H224.074C224.28 43.3573 224.873 44.5902 225.853 45.4337C226.833 46.2772 228.122 46.7055 229.72 46.7055C230.726 46.7055 231.641 46.4849 232.454 46.0566C233.266 45.6283 233.846 44.9925 234.207 44.1619H240.55C239.866 46.5497 238.526 48.4704 236.527 49.9498C234.529 51.4292 232.196 52.1559 229.54 52.1559C226.111 52.1559 223.3 51.0139 221.109 48.717C218.917 46.42 217.821 43.4741 217.821 39.8664C217.821 36.2587 218.917 33.4816 221.109 31.1586C223.3 28.8357 226.098 27.6677 229.501 27.6677C232.905 27.6677 235.677 28.8227 237.817 31.1327C239.957 33.4426 241.04 36.3496 241.04 39.8664L240.949 41.7481H240.936ZM229.437 32.7678C228.019 32.7678 226.846 33.1571 225.93 33.9488C225.015 34.7404 224.422 35.8175 224.151 37.1931H234.71C234.478 35.8564 233.897 34.7793 232.982 33.9747C232.067 33.1701 230.881 32.7678 229.437 32.7678Z" fill="#007C94"/>
<path d="M258.431 28.0311V33.9747C257.992 33.8839 257.567 33.845 257.193 33.845C255.324 33.845 253.931 34.3381 253.003 35.3244C252.075 36.3107 251.611 37.855 251.611 39.9703V51.6239H245.307V28.2128H251.121V31.2495C252.449 29.0823 254.64 27.9922 257.683 27.9922L258.431 28.0311Z" fill="#007C94"/>
<path d="M122.022 55.0886V64.9254H121.016V55.0886H122.022Z" fill="#007C94"/>
<path d="M131.716 60.7986V64.9124H130.737V60.6039C130.737 59.9681 130.595 59.4619 130.298 59.0986C130.002 58.7352 129.563 58.5535 128.97 58.5535C128.377 58.5535 127.9 58.7482 127.527 59.1375C127.153 59.5268 126.959 60.0589 126.959 60.7207V64.9124H125.979V57.8657H126.921V58.9428C127.372 58.1123 128.107 57.697 129.138 57.697C130.247 57.697 131.007 58.1512 131.42 59.0596C131.639 58.6833 131.961 58.3589 132.387 58.0993C132.812 57.8398 133.315 57.71 133.882 57.71C134.694 57.71 135.326 57.9695 135.777 58.4757C136.229 58.9948 136.448 59.6436 136.448 60.4223V64.9254H135.468V60.6169C135.468 59.994 135.326 59.4879 135.03 59.1245C134.746 58.7612 134.308 58.5665 133.715 58.5665C133.122 58.5665 132.657 58.7612 132.271 59.1505C131.884 59.5398 131.703 60.0978 131.703 60.8116L131.716 60.7986Z" fill="#007C94"/>
<path d="M141.153 63.6406V67.7934H140.173V57.8657H141.114V59.1635C141.669 58.1902 142.545 57.697 143.77 57.697C144.802 57.697 145.614 58.0604 146.207 58.7741C146.8 59.4879 147.083 60.3704 147.083 61.3956C147.083 62.4208 146.787 63.2903 146.207 64.004C145.614 64.7178 144.814 65.0811 143.77 65.0811C142.545 65.0811 141.682 64.601 141.153 63.6406ZM141.127 61.3956C141.127 62.1872 141.347 62.849 141.785 63.3941C142.223 63.9261 142.829 64.1987 143.59 64.1987C144.35 64.1987 144.956 63.9261 145.407 63.3941C145.859 62.862 146.091 62.2002 146.091 61.3956C146.091 60.591 145.859 59.9291 145.407 59.3841C144.956 58.852 144.35 58.5795 143.59 58.5795C142.829 58.5795 142.223 58.852 141.785 59.3711C141.347 59.9032 141.127 60.578 141.127 61.3826V61.3956Z" fill="#007C94"/>
<path d="M153.736 57.8138V58.7352C153.62 58.7352 153.517 58.7222 153.388 58.7222C152.769 58.7222 152.253 58.9039 151.879 59.2802C151.505 59.6566 151.299 60.2016 151.299 60.9024V64.8994H150.319V57.8527H151.26V58.9428C151.428 58.6443 151.699 58.3718 152.073 58.1382C152.446 57.9046 152.923 57.7878 153.504 57.7878H153.736V57.8138Z" fill="#007C94"/>
<path d="M162.502 61.6811H156.675C156.726 62.4208 156.971 63.0307 157.423 63.4979C157.874 63.9651 158.454 64.1987 159.176 64.1987C159.704 64.1987 160.156 64.0559 160.555 63.7834C160.955 63.5109 161.226 63.1475 161.38 62.7063H162.399C162.193 63.407 161.793 63.978 161.226 64.4193C160.658 64.8605 159.962 65.0811 159.163 65.0811C158.093 65.0811 157.255 64.7178 156.636 64.004C156.017 63.2903 155.708 62.4078 155.708 61.3826C155.708 60.3574 156.03 59.5009 156.662 58.7741C157.294 58.0474 158.132 57.697 159.15 57.697C160.169 57.697 160.981 58.0344 161.6 58.7222C162.218 59.41 162.528 60.2665 162.528 61.2917V61.6681L162.502 61.6811ZM159.124 58.5925C158.467 58.5925 157.913 58.8131 157.474 59.2413C157.036 59.6696 156.778 60.2146 156.688 60.8894H161.522C161.458 60.2016 161.213 59.6436 160.787 59.2283C160.362 58.8131 159.808 58.6054 159.124 58.6054V58.5925Z" fill="#007C94"/>
<path d="M168.007 65.0811C167.066 65.0811 166.357 64.8605 165.893 64.4063C165.429 63.9651 165.171 63.3941 165.132 62.7063H166.125C166.164 63.1735 166.344 63.5498 166.654 63.8093C166.976 64.0819 167.427 64.2116 168.007 64.2116C168.587 64.2116 169.039 64.1078 169.361 63.8872C169.683 63.6666 169.851 63.3811 169.851 63.0177C169.851 62.6544 169.696 62.3689 169.4 62.1872C169.103 62.0055 168.742 61.8887 168.317 61.8238C167.891 61.7589 167.466 61.6811 167.04 61.5902C166.615 61.4994 166.254 61.3047 165.957 61.0192C165.661 60.7207 165.506 60.3055 165.506 59.7734C165.506 59.2024 165.738 58.7093 166.202 58.307C166.666 57.9047 167.298 57.697 168.097 57.697C168.974 57.697 169.632 57.9176 170.057 58.3718C170.482 58.826 170.715 59.3451 170.779 59.9291H169.799C169.748 59.5268 169.593 59.1894 169.309 58.9428C169.026 58.6833 168.613 58.5665 168.085 58.5665C167.556 58.5665 167.156 58.6703 166.886 58.8909C166.602 59.1116 166.46 59.3841 166.46 59.7085C166.46 60.007 166.576 60.2406 166.795 60.4093C167.015 60.578 167.285 60.6948 167.595 60.7727C167.904 60.8505 168.252 60.9284 168.626 61.0192C169 61.1101 169.348 61.1879 169.67 61.2658C169.993 61.3437 170.263 61.5383 170.47 61.8368C170.676 62.1482 170.792 62.5376 170.792 63.0177C170.792 63.5887 170.547 64.0819 170.07 64.4842C169.593 64.8865 168.897 65.0941 167.994 65.0941L168.007 65.0811Z" fill="#007C94"/>
<path d="M176.167 65.0811C175.226 65.0811 174.517 64.8605 174.053 64.4063C173.589 63.9651 173.331 63.3941 173.292 62.7063H174.285C174.324 63.1735 174.504 63.5498 174.814 63.8093C175.136 64.0819 175.587 64.2116 176.167 64.2116C176.747 64.2116 177.199 64.1078 177.521 63.8872C177.843 63.6666 178.011 63.3811 178.011 63.0177C178.011 62.6544 177.856 62.3689 177.56 62.1872C177.263 62.0055 176.902 61.8887 176.477 61.8238C176.051 61.7589 175.626 61.6811 175.2 61.5902C174.775 61.4994 174.414 61.3047 174.118 61.0192C173.821 60.7207 173.666 60.3055 173.666 59.7734C173.666 59.2024 173.898 58.7093 174.363 58.307C174.827 57.9047 175.458 57.697 176.258 57.697C177.134 57.697 177.792 57.9176 178.217 58.3718C178.643 58.826 178.875 59.3451 178.939 59.9291H177.959C177.908 59.5268 177.753 59.1894 177.469 58.9428C177.186 58.6833 176.773 58.5665 176.245 58.5665C175.716 58.5665 175.317 58.6703 175.046 58.8909C174.762 59.1116 174.62 59.3841 174.62 59.7085C174.62 60.007 174.736 60.2406 174.956 60.4093C175.175 60.578 175.445 60.6948 175.755 60.7727C176.064 60.8505 176.412 60.9284 176.786 61.0192C177.16 61.1101 177.508 61.1879 177.83 61.2658C178.153 61.3437 178.423 61.5383 178.63 61.8368C178.836 62.1482 178.952 62.5376 178.952 63.0177C178.952 63.5887 178.707 64.0819 178.23 64.4842C177.753 64.8865 177.057 65.0941 176.154 65.0941L176.167 65.0811Z" fill="#007C94"/>
<path d="M184.238 65.0811C183.426 65.0811 182.807 64.8994 182.382 64.5231C181.969 64.1468 181.75 63.6277 181.75 62.9788C181.75 61.7979 182.627 61.0841 184.38 60.8505L186.842 60.5261V60.3314C186.842 59.1375 186.185 58.5406 184.857 58.5406C183.735 58.5406 183.091 59.0077 182.897 59.9421H181.918C182.021 59.2543 182.304 58.7093 182.794 58.307C183.271 57.9047 183.98 57.697 184.896 57.697C185.863 57.697 186.597 57.9306 187.087 58.4108C187.577 58.8909 187.822 59.5268 187.822 60.3444V63.433C187.822 64.1208 187.887 64.6139 188.028 64.9124H187.061C186.958 64.6399 186.907 64.2376 186.907 63.7055C186.378 64.6139 185.476 65.0811 184.225 65.0811H184.238ZM185.734 56.2955C185.463 56.2955 185.141 56.2046 184.767 56.023C184.393 55.8413 184.109 55.7504 183.916 55.7504C183.594 55.7504 183.4 55.9191 183.336 56.2436H182.575C182.627 55.8413 182.768 55.5168 183.013 55.2832C183.258 55.0497 183.581 54.9329 183.967 54.9329C184.238 54.9329 184.548 55.0237 184.921 55.2054C185.295 55.3871 185.579 55.4779 185.772 55.4779C186.095 55.4779 186.288 55.3092 186.352 54.9848H187.113C187.061 55.3871 186.92 55.7115 186.688 55.9451C186.456 56.1787 186.133 56.2955 185.734 56.2955ZM186.842 61.3047L184.522 61.6162C183.877 61.694 183.413 61.8498 183.142 62.0834C182.859 62.304 182.717 62.6025 182.717 62.9788C182.717 63.433 182.872 63.7704 183.181 63.9651C183.49 64.1597 183.877 64.2636 184.341 64.2636C185.115 64.2636 185.734 64.0429 186.185 63.6017C186.623 63.1605 186.855 62.6673 186.855 62.1223V61.3047H186.842Z" fill="#007C94"/>
<path d="M194.577 65.0811C193.507 65.0811 192.656 64.7178 191.999 63.991C191.341 63.2643 191.019 62.3948 191.019 61.3956C191.019 60.3963 191.341 59.5138 191.999 58.7871C192.656 58.0604 193.52 57.697 194.577 57.697C195.634 57.697 196.511 58.0604 197.168 58.7871C197.826 59.5138 198.148 60.3833 198.148 61.3956C198.148 62.4078 197.826 63.2643 197.168 63.991C196.511 64.7178 195.647 65.0811 194.577 65.0811ZM191.999 61.3956C191.999 62.2002 192.244 62.862 192.721 63.3941C193.198 63.9261 193.817 64.1857 194.577 64.1857C195.338 64.1857 195.97 63.9132 196.447 63.3941C196.924 62.862 197.156 62.2002 197.156 61.3956C197.156 60.591 196.911 59.9161 196.447 59.3841C195.97 58.852 195.351 58.5925 194.577 58.5925C193.804 58.5925 193.185 58.865 192.708 59.3841C192.231 59.9161 191.999 60.591 191.999 61.3956Z" fill="#007C94"/>
<path d="M211.775 59.1507V57.8659H212.716V64.5752C212.716 65.5744 212.433 66.379 211.865 67.0149C211.298 67.6378 210.486 67.9623 209.442 67.9623C208.526 67.9623 207.792 67.7416 207.263 67.3004C206.722 66.8592 206.386 66.3271 206.257 65.7172H207.263C207.405 66.1325 207.663 66.4569 208.049 66.7035C208.436 66.95 208.913 67.0668 209.468 67.0668C210.177 67.0668 210.731 66.8592 211.131 66.4309C211.53 66.0157 211.737 65.4576 211.737 64.7958V63.4851C211.195 64.4324 210.331 64.9126 209.132 64.9126C208.127 64.9126 207.315 64.5622 206.722 63.8614C206.129 63.1606 205.832 62.3041 205.832 61.3179C205.832 60.3316 206.129 59.4751 206.722 58.7743C207.315 58.0735 208.114 57.7231 209.132 57.7231C210.357 57.7231 211.234 58.2033 211.775 59.1766V59.1507ZM211.105 63.2515C211.556 62.7324 211.775 62.0835 211.775 61.3049C211.775 60.5262 211.556 59.8774 211.105 59.3583C210.654 58.8392 210.061 58.5926 209.313 58.5926C208.565 58.5926 207.959 58.8522 207.508 59.3713C207.057 59.8904 206.825 60.5392 206.825 61.3049C206.825 62.0706 207.057 62.7324 207.508 63.2515C207.959 63.7706 208.565 64.0301 209.313 64.0301C210.061 64.0301 210.666 63.7706 211.105 63.2515Z" fill="#007C94"/>
<path d="M219.845 57.8138V58.7352C219.729 58.7352 219.626 58.7222 219.497 58.7222C218.878 58.7222 218.362 58.9039 217.989 59.2802C217.615 59.6566 217.408 60.2016 217.408 60.9024V64.8994H216.429V57.8527H217.37V58.9428C217.537 58.6443 217.808 58.3718 218.182 58.1382C218.556 57.9046 219.033 57.7878 219.613 57.7878H219.845V57.8138Z" fill="#007C94"/>
<path d="M224.473 65.0812C223.661 65.0812 223.042 64.8995 222.617 64.5232C222.205 64.1469 221.985 63.6278 221.985 62.9789C221.985 61.798 222.862 61.0842 224.615 60.8506L227.078 60.5262V60.3315C227.078 59.1376 226.42 58.5406 225.092 58.5406C223.971 58.5406 223.326 59.0078 223.133 59.9422H222.153C222.256 59.2544 222.54 58.7094 223.03 58.3071C223.507 57.9048 224.216 57.6971 225.131 57.6971C226.098 57.6971 226.833 57.9307 227.323 58.4109C227.812 58.891 228.057 59.5269 228.057 60.3445V63.4331C228.057 64.1209 228.122 64.614 228.264 64.9125H227.297C227.194 64.64 227.142 64.2377 227.142 63.7056C226.614 64.614 225.711 65.0812 224.461 65.0812H224.473ZM227.091 61.3048L224.77 61.6163C224.125 61.6941 223.661 61.8499 223.391 62.0835C223.107 62.3041 222.965 62.6026 222.965 62.9789C222.965 63.4331 223.12 63.7705 223.429 63.9652C223.739 64.1598 224.125 64.2637 224.59 64.2637C225.363 64.2637 225.982 64.043 226.433 63.6018C226.871 63.1606 227.103 62.6674 227.103 62.1224V61.3048H227.091ZM225.44 54.4009H226.498L225.44 56.7498H224.538L225.44 54.4009Z" fill="#007C94"/>
<path d="M232.118 57.8659V56.698C232.118 55.9712 232.312 55.4392 232.685 55.0758C233.059 54.7124 233.562 54.5308 234.194 54.5308L234.658 54.5567V55.4522C234.568 55.4392 234.439 55.4262 234.271 55.4262C233.872 55.4262 233.575 55.53 233.382 55.7117C233.188 55.9064 233.085 56.2178 233.085 56.659V57.8659H234.671V58.6965H233.085V64.9126H232.105V58.6965H230.739V57.8659H232.105H232.118ZM236.617 56.127C236.411 56.127 236.244 56.0621 236.115 55.9453C235.986 55.8155 235.921 55.6598 235.921 55.4522C235.921 55.2445 235.986 55.0758 236.115 54.946C236.244 54.8163 236.411 54.7514 236.617 54.7514C236.824 54.7514 236.991 54.8163 237.12 54.946C237.249 55.0758 237.314 55.2445 237.314 55.4522C237.314 55.6598 237.249 55.8155 237.12 55.9453C236.991 56.0751 236.824 56.127 236.617 56.127ZM236.128 64.9256V57.8789H237.107V64.9256H236.128Z" fill="#007C94"/>
<path d="M241.516 63.991C240.885 63.2643 240.562 62.3948 240.562 61.3956C240.562 60.3963 240.885 59.5268 241.516 58.7871C242.148 58.0604 242.986 57.697 244.018 57.697C244.92 57.697 245.655 57.9566 246.222 58.4627C246.789 58.9818 247.15 59.6047 247.292 60.3704H246.299C246.158 59.8123 245.887 59.3841 245.487 59.0596C245.088 58.7352 244.598 58.5795 244.018 58.5795C243.283 58.5795 242.69 58.839 242.238 59.3711C241.787 59.9032 241.555 60.565 241.555 61.3956C241.555 62.2261 241.787 62.875 242.238 63.407C242.69 63.9391 243.283 64.1987 244.018 64.1987C244.611 64.1987 245.1 64.0429 245.487 63.7185C245.887 63.3941 246.158 62.9658 246.299 62.4078H247.292C247.15 63.1605 246.789 63.7964 246.222 64.3155C245.655 64.8216 244.92 65.0811 244.018 65.0811C242.986 65.0811 242.161 64.7178 241.516 63.991Z" fill="#007C94"/>
<path d="M252.32 65.0811C251.508 65.0811 250.889 64.8994 250.464 64.5231C250.051 64.1468 249.832 63.6277 249.832 62.9788C249.832 61.7979 250.709 61.0841 252.462 60.8505L254.924 60.5261V60.3314C254.924 59.1375 254.267 58.5405 252.939 58.5405C251.817 58.5405 251.173 59.0077 250.979 59.9421H250C250.103 59.2543 250.386 58.7093 250.876 58.307C251.353 57.9047 252.062 57.697 252.978 57.697C253.945 57.697 254.679 57.9306 255.169 58.4108C255.659 58.8909 255.904 59.5268 255.904 60.3444V63.433C255.904 64.1208 255.969 64.6139 256.11 64.9124H255.144C255.04 64.6399 254.989 64.2376 254.989 63.7055C254.46 64.6139 253.558 65.0811 252.307 65.0811H252.32ZM254.937 61.3047L252.617 61.6162C251.972 61.694 251.508 61.8498 251.237 62.0834C250.954 62.304 250.812 62.6025 250.812 62.9788C250.812 63.433 250.967 63.7704 251.276 63.9651C251.585 64.1597 251.972 64.2636 252.436 64.2636C253.21 64.2636 253.829 64.0429 254.28 63.6017C254.718 63.1605 254.95 62.6673 254.95 62.1223V61.3047H254.937Z" fill="#007C94"/>
</svg>
