<?xml version="1.0" encoding="UTF-8"?>
<svg id="Camada_1" data-name="Camada 1" xmlns="http://www.w3.org/2000/svg" viewBox="0 0 204.78 67.04">
  <defs>
    <style>
      .cls-1 {
        fill: #31954c;
      }

      .cls-2 {
        fill: #007c94;
      }
    </style>
  </defs>
  <g>
    <polygon class="cls-2" points="81.83 15.81 73.98 3.82 57.47 30.45 39.89 5.02 18.45 39.77 32.99 39.77 40.02 28.59 46.28 39.77 67.19 39.77 81.83 15.81"/>
    <polygon class="cls-1" points="81.83 40.97 81.83 51.23 11.28 51.23 17.7 40.97 81.83 40.97"/>
    <polygon class="cls-2" points="25.18 52.42 18.18 63.74 3.45 63.74 10.54 52.42 25.18 52.42"/>
  </g>
  <g>
    <path class="cls-2" d="M98.08,15.33l7.16,9.47,7.16-9.47h4.61v24.44h-4.82V23.11l-6.88,8.85h-.14l-6.88-8.85v16.66h-4.82V15.33h4.61Z"/>
    <path class="cls-2" d="M127.24,40.19c-2.02,0-3.58-.5-4.68-1.51s-1.65-2.35-1.65-4.03c0-1.58,.57-2.83,1.71-3.77,1.14-.94,2.9-1.59,5.27-1.96l4.83-.74v-.17c0-1.77-1.08-2.65-3.24-2.65-2.02,0-3.13,.74-3.34,2.2h-4.82c.16-1.77,.9-3.25,2.2-4.44,1.31-1.19,3.28-1.79,5.92-1.79s4.59,.59,5.92,1.76c1.33,1.17,2,2.82,2,4.96v8.5c0,1.35,.17,2.43,.52,3.24h-4.72s-.05-.08-.07-.24c-.02-.16-.05-.41-.09-.74-.03-.33-.05-.67-.05-1.01-1.12,1.61-3.03,2.41-5.71,2.41Zm5.47-8.5l-4.33,.72c-1.84,.32-2.76,1.02-2.76,2.12,0,1.25,.91,1.88,2.72,1.88,1.4,0,2.48-.36,3.24-1.09s1.14-1.7,1.14-2.9v-.72Z"/>
    <path class="cls-2" d="M148.13,40.19c-4.91,0-7.52-2.09-7.81-6.26h4.96c.05,.67,.31,1.22,.81,1.67,.49,.45,1.22,.67,2.19,.67s1.62-.15,2.1-.45c.48-.3,.72-.7,.72-1.2,0-.55-.34-.96-1.03-1.22-.69-.26-1.52-.48-2.5-.64-.98-.16-1.96-.38-2.94-.65s-1.82-.81-2.51-1.62c-.69-.8-1.03-1.87-1.03-3.2,0-1.67,.67-3.09,2-4.23,1.33-1.15,3.07-1.72,5.23-1.72,2.46,0,4.28,.62,5.47,1.86,1.19,1.24,1.84,2.65,1.93,4.23h-4.72c-.05-.62-.3-1.14-.77-1.55s-1.12-.62-1.94-.62c-.78,0-1.39,.17-1.82,.5-.44,.33-.65,.75-.65,1.26,0,.55,.34,.95,1.03,1.21,.69,.25,1.52,.45,2.5,.6s1.95,.36,2.93,.64c.98,.28,1.81,.83,2.5,1.65s1.03,1.93,1.03,3.3c0,1.68-.68,3.06-2.05,4.15s-3.23,1.63-5.59,1.63Z"/>
    <path class="cls-2" d="M167.44,35.44v4.23c-.55,.14-1.32,.21-2.31,.21-3.7,0-5.54-1.84-5.54-5.51v-8.78h-2.44v-3.86h2.44v-4.47h4.89v4.47h3v3.86h-3v8.26c0,1.17,.61,1.76,1.82,1.76l1.14-.17Z"/>
    <path class="cls-2" d="M186.89,32.17h-13.08c.16,1.24,.62,2.19,1.38,2.84s1.76,.98,3,.98c.78,0,1.49-.17,2.12-.5,.63-.33,1.08-.82,1.36-1.46h4.92c-.53,1.84-1.57,3.32-3.12,4.46-1.55,1.14-3.36,1.7-5.42,1.7-2.66,0-4.84-.88-6.54-2.65-1.7-1.77-2.55-4.04-2.55-6.82s.85-4.92,2.55-6.71c1.7-1.79,3.87-2.69,6.51-2.69s4.79,.89,6.45,2.67c1.66,1.78,2.5,4.02,2.5,6.73l-.07,1.45Zm-8.92-6.92c-1.1,0-2.01,.3-2.72,.91s-1.17,1.44-1.38,2.5h8.19c-.18-1.03-.63-1.86-1.34-2.48-.71-.62-1.63-.93-2.75-.93Z"/>
    <path class="cls-2" d="M200.46,21.6v4.58c-.34-.07-.67-.1-.96-.1-1.45,0-2.53,.38-3.25,1.14-.72,.76-1.08,1.95-1.08,3.58v8.98h-4.89V21.74h4.51v2.34c1.03-1.67,2.73-2.51,5.09-2.51l.58,.03Z"/>
  </g>
  <g>
    <path class="cls-2" d="M94.65,42.45v7.58h-.78v-7.58h.78Z"/>
    <path class="cls-2" d="M102.17,46.85v3.17h-.76v-3.32c0-.49-.11-.88-.34-1.16s-.57-.42-1.03-.42-.83,.15-1.12,.45c-.29,.3-.44,.71-.44,1.22v3.23h-.76v-5.43h.73v.83c.35-.64,.92-.96,1.72-.96,.86,0,1.45,.35,1.77,1.05,.17-.29,.42-.54,.75-.74,.33-.2,.72-.3,1.16-.3,.63,0,1.12,.2,1.47,.59,.35,.4,.52,.9,.52,1.5v3.47h-.76v-3.32c0-.48-.11-.87-.34-1.15-.22-.28-.56-.43-1.02-.43s-.82,.15-1.12,.45c-.3,.3-.44,.73-.44,1.28Z"/>
    <path class="cls-2" d="M109.49,49.04v3.2h-.76v-7.65h.73v1c.43-.75,1.11-1.13,2.06-1.13,.8,0,1.43,.28,1.89,.83,.46,.55,.68,1.23,.68,2.02s-.23,1.46-.68,2.01c-.46,.55-1.08,.83-1.89,.83-.95,0-1.62-.37-2.03-1.11Zm-.02-1.73c0,.61,.17,1.12,.51,1.54,.34,.41,.81,.62,1.4,.62s1.06-.21,1.41-.62c.35-.41,.53-.92,.53-1.54s-.18-1.13-.53-1.55c-.35-.41-.82-.62-1.41-.62s-1.06,.21-1.4,.61c-.34,.41-.51,.93-.51,1.55Z"/>
    <path class="cls-2" d="M119.25,44.55v.71c-.09,0-.17-.01-.27-.01-.48,0-.88,.14-1.17,.43s-.45,.71-.45,1.25v3.08h-.76v-5.43h.73v.84c.13-.23,.34-.44,.63-.62,.29-.18,.66-.27,1.11-.27h.18Z"/>
    <path class="cls-2" d="M126.05,47.53h-4.52c.04,.57,.23,1.04,.58,1.4,.35,.36,.8,.54,1.36,.54,.41,0,.76-.11,1.07-.32,.31-.21,.52-.49,.64-.83h.79c-.16,.54-.47,.98-.91,1.32-.44,.34-.98,.51-1.6,.51-.83,0-1.48-.28-1.96-.83-.48-.55-.72-1.23-.72-2.02s.25-1.45,.74-2.01,1.14-.83,1.93-.83,1.42,.26,1.9,.79,.72,1.19,.72,1.98v.29Zm-2.62-2.38c-.51,0-.94,.17-1.28,.5-.34,.33-.54,.75-.61,1.27h3.75c-.05-.53-.24-.96-.57-1.28s-.76-.48-1.29-.48Z"/>
    <path class="cls-2" d="M130.32,50.15c-.73,0-1.28-.17-1.64-.52-.36-.34-.56-.78-.59-1.31h.77c.03,.36,.17,.65,.41,.85,.25,.21,.6,.31,1.05,.31s.8-.08,1.05-.25,.38-.39,.38-.67-.12-.5-.35-.64c-.23-.14-.51-.23-.84-.28-.33-.05-.66-.11-.99-.18s-.61-.22-.84-.44c-.23-.23-.35-.55-.35-.96,0-.44,.18-.82,.54-1.13,.36-.31,.85-.47,1.47-.47,.68,0,1.19,.17,1.52,.52,.33,.35,.51,.75,.56,1.2h-.76c-.04-.31-.16-.57-.38-.76-.22-.2-.54-.29-.95-.29s-.72,.08-.93,.25c-.22,.17-.33,.38-.33,.63,0,.23,.09,.41,.26,.54,.17,.13,.38,.22,.62,.28,.24,.06,.51,.12,.8,.19,.29,.07,.56,.13,.81,.19,.25,.06,.46,.21,.62,.44,.16,.24,.25,.54,.25,.91,0,.44-.19,.82-.56,1.13-.37,.31-.91,.47-1.61,.47Z"/>
    <path class="cls-2" d="M136.65,50.15c-.73,0-1.28-.17-1.64-.52-.36-.34-.56-.78-.59-1.31h.77c.03,.36,.17,.65,.41,.85,.25,.21,.6,.31,1.05,.31s.8-.08,1.05-.25,.38-.39,.38-.67-.12-.5-.35-.64c-.23-.14-.51-.23-.84-.28-.33-.05-.66-.11-.99-.18s-.61-.22-.84-.44c-.23-.23-.35-.55-.35-.96,0-.44,.18-.82,.54-1.13,.36-.31,.85-.47,1.47-.47,.68,0,1.19,.17,1.52,.52,.33,.35,.51,.75,.56,1.2h-.76c-.04-.31-.16-.57-.38-.76-.22-.2-.54-.29-.95-.29s-.72,.08-.93,.25c-.22,.17-.33,.38-.33,.63,0,.23,.09,.41,.26,.54,.17,.13,.38,.22,.62,.28,.24,.06,.51,.12,.8,.19,.29,.07,.56,.13,.81,.19,.25,.06,.46,.21,.62,.44,.16,.24,.25,.54,.25,.91,0,.44-.19,.82-.56,1.13-.37,.31-.91,.47-1.61,.47Z"/>
    <path class="cls-2" d="M142.91,50.15c-.63,0-1.11-.14-1.44-.43-.32-.29-.49-.69-.49-1.19,0-.91,.68-1.46,2.04-1.64l1.91-.25v-.15c0-.92-.51-1.38-1.54-1.38-.87,0-1.37,.36-1.52,1.08h-.76c.08-.53,.3-.95,.68-1.26,.37-.31,.92-.47,1.63-.47,.75,0,1.32,.18,1.7,.55,.38,.37,.57,.86,.57,1.49v2.38c0,.53,.05,.91,.16,1.14h-.75c-.08-.21-.12-.52-.12-.93-.41,.7-1.11,1.06-2.08,1.06Zm1.16-6.77c-.21,0-.46-.07-.75-.21-.29-.14-.51-.21-.66-.21-.25,0-.4,.13-.45,.38h-.59c.04-.31,.15-.56,.34-.74s.44-.27,.74-.27c.21,0,.45,.07,.74,.21,.29,.14,.51,.21,.66,.21,.25,0,.4-.13,.45-.38h.59c-.04,.31-.15,.56-.33,.74s-.43,.27-.74,.27Zm.86,3.86l-1.8,.24c-.5,.06-.86,.18-1.07,.36-.22,.17-.33,.4-.33,.69,0,.35,.12,.61,.36,.76,.24,.15,.54,.23,.9,.23,.6,0,1.08-.17,1.43-.51,.34-.34,.52-.72,.52-1.14v-.63Z"/>
    <path class="cls-2" d="M150.93,50.15c-.83,0-1.49-.28-2-.84s-.76-1.23-.76-2,.25-1.45,.76-2.01,1.18-.84,2-.84,1.5,.28,2.01,.84,.76,1.23,.76,2.01-.25,1.44-.76,2-1.18,.84-2.01,.84Zm-2-2.84c0,.62,.19,1.13,.56,1.54,.37,.41,.85,.61,1.44,.61s1.08-.21,1.45-.61c.37-.41,.55-.92,.55-1.54s-.19-1.14-.55-1.55c-.37-.41-.85-.61-1.45-.61s-1.08,.21-1.45,.61c-.37,.41-.55,.93-.55,1.55Z"/>
    <path class="cls-2" d="M164.27,45.58v-.99h.73v5.17c0,.77-.22,1.39-.66,1.88-.44,.48-1.07,.73-1.88,.73-.71,0-1.28-.17-1.69-.51-.42-.34-.68-.75-.78-1.22h.78c.11,.32,.31,.57,.61,.76,.3,.19,.67,.28,1.1,.28,.55,0,.98-.16,1.29-.49,.31-.32,.47-.75,.47-1.26v-1.01c-.42,.73-1.09,1.1-2.02,1.1-.78,0-1.41-.27-1.87-.81-.46-.54-.69-1.2-.69-1.96s.23-1.42,.69-1.96c.46-.54,1.08-.81,1.87-.81,.95,0,1.63,.37,2.05,1.12Zm-.52,3.16c.35-.4,.52-.9,.52-1.5s-.17-1.1-.52-1.5c-.35-.4-.81-.59-1.39-.59s-1.05,.2-1.4,.6-.53,.9-.53,1.49,.18,1.1,.53,1.5,.82,.6,1.4,.6,1.05-.2,1.39-.6Z"/>
    <path class="cls-2" d="M170.53,44.55v.71c-.09,0-.17-.01-.27-.01-.48,0-.88,.14-1.17,.43s-.45,.71-.45,1.25v3.08h-.76v-5.43h.73v.84c.13-.23,.34-.44,.63-.62,.29-.18,.66-.27,1.11-.27h.18Z"/>
    <path class="cls-2" d="M174.12,50.15c-.63,0-1.11-.14-1.44-.43-.32-.29-.49-.69-.49-1.19,0-.91,.68-1.46,2.04-1.64l1.91-.25v-.15c0-.92-.51-1.38-1.54-1.38-.87,0-1.37,.36-1.52,1.08h-.76c.08-.53,.3-.95,.68-1.26,.37-.31,.92-.47,1.63-.47,.75,0,1.32,.18,1.7,.55,.38,.37,.57,.86,.57,1.49v2.38c0,.53,.05,.91,.16,1.14h-.75c-.08-.21-.12-.52-.12-.93-.41,.7-1.11,1.06-2.08,1.06Zm2.03-2.91l-1.8,.24c-.5,.06-.86,.18-1.07,.36-.22,.17-.33,.4-.33,.69,0,.35,.12,.61,.36,.76,.24,.15,.54,.23,.9,.23,.6,0,1.08-.17,1.43-.51,.34-.34,.52-.72,.52-1.14v-.63Zm-1.28-5.32h.82l-.82,1.81h-.7l.7-1.81Z"/>
    <path class="cls-2" d="M180.05,44.59v-.9c0-.56,.15-.97,.44-1.25,.29-.28,.68-.42,1.17-.42l.36,.02v.69c-.07-.01-.17-.02-.3-.02-.31,0-.54,.08-.69,.22-.15,.15-.23,.39-.23,.73v.93h1.23v.64h-1.23v4.79h-.76v-4.79h-1.06v-.64h1.06Zm3.49-1.34c-.16,0-.29-.05-.39-.14-.1-.1-.15-.22-.15-.38s.05-.29,.15-.39c.1-.1,.23-.15,.39-.15s.29,.05,.39,.15c.1,.1,.15,.23,.15,.39s-.05,.28-.15,.38-.23,.14-.39,.14Zm-.38,6.78v-5.43h.76v5.43h-.76Z"/>
    <path class="cls-2" d="M187.34,49.31c-.49-.56-.74-1.23-.74-2s.25-1.44,.74-2.01c.49-.56,1.14-.84,1.94-.84,.7,0,1.27,.2,1.71,.59,.44,.4,.72,.88,.83,1.47h-.77c-.11-.43-.32-.76-.63-1.01-.31-.25-.69-.37-1.14-.37-.57,0-1.03,.2-1.38,.61s-.53,.92-.53,1.56,.18,1.14,.53,1.55c.35,.41,.81,.61,1.38,.61,.46,0,.84-.12,1.14-.37,.31-.25,.52-.58,.63-1.01h.77c-.11,.58-.39,1.07-.83,1.47-.44,.39-1.01,.59-1.71,.59-.8,0-1.44-.28-1.94-.84Z"/>
    <path class="cls-2" d="M195.72,50.15c-.63,0-1.11-.14-1.44-.43-.32-.29-.49-.69-.49-1.19,0-.91,.68-1.46,2.04-1.64l1.91-.25v-.15c0-.92-.51-1.38-1.54-1.38-.87,0-1.37,.36-1.52,1.08h-.76c.08-.53,.3-.95,.68-1.26,.37-.31,.92-.47,1.63-.47,.75,0,1.32,.18,1.7,.55,.38,.37,.57,.86,.57,1.49v2.38c0,.53,.05,.91,.16,1.14h-.75c-.08-.21-.12-.52-.12-.93-.41,.7-1.11,1.06-2.08,1.06Zm2.03-2.91l-1.8,.24c-.5,.06-.86,.18-1.07,.36-.22,.17-.33,.4-.33,.69,0,.35,.12,.61,.36,.76,.24,.15,.54,.23,.9,.23,.6,0,1.08-.17,1.43-.51,.34-.34,.52-.72,.52-1.14v-.63Z"/>
  </g>
</svg>