<svg width="18" height="19" viewBox="0 0 18 19" fill="none" xmlns="http://www.w3.org/2000/svg">
<path d="M17 18.5H1C0.734784 18.5 0.48043 18.3946 0.292893 18.2071C0.105357 18.0196 0 17.7652 0 17.5V1.5C0 1.23478 0.105357 0.98043 0.292893 0.792893C0.48043 0.605357 0.734784 0.5 1 0.5H17C17.2652 0.5 17.5196 0.605357 17.7071 0.792893C17.8946 0.98043 18 1.23478 18 1.5V17.5C18 17.7652 17.8946 18.0196 17.7071 18.2071C17.5196 18.3946 17.2652 18.5 17 18.5ZM2 2.5V16.5H16V2.5H2ZM11 14.5H8V10.5H7V8.5H10V12.5H11V14.5ZM10 6.5H8V4.5H10V6.5Z" fill="#037F8C"/>
</svg>
