<svg width="20" height="21" viewBox="0 0 20 21" fill="none" xmlns="http://www.w3.org/2000/svg">
<path d="M19 17.74V11.007C19 10.4645 18.8896 9.92757 18.6756 9.42903C18.4616 8.93048 18.1483 8.48068 17.755 8.107L11.378 2.05C11.0063 1.69689 10.5132 1.5 10.0005 1.5C9.48781 1.5 8.9947 1.69689 8.623 2.05L2.245 8.107C1.85165 8.48068 1.53844 8.93048 1.3244 9.42903C1.11037 9.92757 0.999999 10.4645 1 11.007V17.74C1 18.2704 1.21071 18.7791 1.58579 19.1542C1.96086 19.5293 2.46957 19.74 3 19.74H17C17.5304 19.74 18.0391 19.5293 18.4142 19.1542C18.7893 18.7791 19 18.2704 19 17.74Z" stroke="#037F8C" stroke-width="2" stroke-linecap="round" stroke-linejoin="round"/>
<path d="M7 13.74C7 13.2096 7.21071 12.7008 7.58579 12.3258C7.96086 11.9507 8.46957 11.74 9 11.74H11C11.5304 11.74 12.0391 11.9507 12.4142 12.3258C12.7893 12.7008 13 13.2096 13 13.74V19.74H7V13.74Z" stroke="#037F8C" stroke-width="2" stroke-linecap="round" stroke-linejoin="round"/>
</svg>
