<svg width="290" height="95" viewBox="0 0 290 95" fill="none" xmlns="http://www.w3.org/2000/svg">
<path d="M115.884 22.4038L104.767 5.41321L81.3863 43.1496L56.4903 7.11369L26.1279 56.3567H46.7188L56.6744 40.5139L65.5395 56.3567H95.1513L115.884 22.4038Z" fill="#007C94"/>
<path d="M115.884 58.0571V72.5962H15.9741L25.0658 58.0571H115.884Z" fill="#31954C"/>
<path d="M35.6588 74.2825L25.7457 90.3237H4.88574L14.9263 74.2825H35.6588Z" fill="#007C94"/>
<path d="M138.896 21.7236L149.036 35.1432L159.175 21.7236H165.704V56.3566H158.878V32.7483L149.135 45.2894H148.937L139.194 32.7483V56.3566H132.368V21.7236H138.896Z" fill="#007C94"/>
<path d="M180.191 56.9518C177.331 56.9518 175.121 56.2433 173.564 54.812C172.006 53.3808 171.227 51.4819 171.227 49.1013C171.227 46.8623 172.034 45.091 173.649 43.7589C175.263 42.4269 177.756 41.5058 181.112 40.9815L187.952 39.9328V39.6919C187.952 37.1837 186.422 35.9367 183.363 35.9367C180.503 35.9367 178.931 36.9853 178.634 39.0543H171.808C172.034 36.5461 173.082 34.4488 174.923 32.7625C176.778 31.0762 179.568 30.226 183.307 30.226C187.045 30.226 189.807 31.062 191.69 32.72C193.574 34.378 194.523 36.7161 194.523 39.7486V51.7937C194.523 53.7067 194.764 55.2371 195.259 56.385H188.575C188.575 56.385 188.504 56.2716 188.476 56.0449C188.447 55.8181 188.405 55.4639 188.348 54.9962C188.306 54.5286 188.278 54.0468 188.278 53.565C186.691 55.8465 183.987 56.9801 180.191 56.9801V56.9518ZM187.938 44.9067L181.806 45.927C179.2 46.3805 177.897 47.3724 177.897 48.9312C177.897 50.7025 179.186 51.5953 181.749 51.5953C183.732 51.5953 185.261 51.0851 186.337 50.0507C187.414 49.0162 187.952 47.6417 187.952 45.9412V44.9209L187.938 44.9067Z" fill="#007C94"/>
<path d="M209.775 56.9518C202.821 56.9518 199.125 53.9901 198.714 48.081H205.738C205.809 49.0304 206.177 49.8098 206.886 50.4474C207.579 51.0851 208.613 51.3969 209.987 51.3969C211.361 51.3969 212.281 51.1843 212.961 50.7592C213.641 50.3341 213.98 49.7673 213.98 49.0587C213.98 48.2793 213.499 47.6983 212.522 47.3299C211.545 46.9615 210.369 46.6497 208.981 46.423C207.594 46.1963 206.206 45.8845 204.818 45.5019C203.43 45.1193 202.241 44.3541 201.263 43.2063C200.286 42.0726 199.805 40.5563 199.805 38.6716C199.805 36.3051 200.754 34.2929 202.637 32.6775C204.521 31.0478 206.985 30.2401 210.044 30.2401C213.527 30.2401 216.105 31.1187 217.79 32.8759C219.475 34.633 220.396 36.6311 220.523 38.87H213.839C213.768 37.9915 213.414 37.2546 212.748 36.6736C212.083 36.0926 211.162 35.795 210.001 35.795C208.896 35.795 208.033 36.0359 207.424 36.5035C206.801 36.9712 206.503 37.5663 206.503 38.289C206.503 39.0684 206.985 39.6352 207.962 40.0037C208.939 40.358 210.114 40.6414 211.502 40.8539C212.89 41.0665 214.264 41.3641 215.652 41.7608C217.039 42.1576 218.215 42.937 219.192 44.099C220.169 45.261 220.651 46.8339 220.651 48.7753C220.651 51.156 219.688 53.1115 217.747 54.6561C215.807 56.2007 213.173 56.9659 209.831 56.9659L209.775 56.9518Z" fill="#007C94"/>
<path d="M237.121 50.2207V56.2149C236.342 56.4133 235.251 56.5125 233.849 56.5125C228.609 56.5125 226.004 53.9051 226.004 48.7045V36.2626H222.548V30.7928H226.004V24.4585H232.929V30.7928H237.177V36.2626H232.929V47.9676C232.929 49.6256 233.793 50.4616 235.506 50.4616L237.121 50.2207V50.2207Z" fill="#007C94"/>
<path d="M264.665 45.5869H246.141C246.368 47.3441 247.019 48.6903 248.096 49.6114C249.172 50.5325 250.588 51.0001 252.344 51.0001C253.449 51.0001 254.454 50.7592 255.346 50.2916C256.238 49.824 256.876 49.1296 257.272 48.2227H264.24C263.489 50.8301 262.016 52.9273 259.821 54.5428C257.626 56.1582 255.063 56.9518 252.146 56.9518C248.379 56.9518 245.292 55.7048 242.884 53.1966C240.477 50.6884 239.273 47.4716 239.273 43.5322C239.273 39.5928 240.477 36.5602 242.884 34.0237C245.292 31.4872 248.365 30.2118 252.103 30.2118C255.842 30.2118 258.887 31.473 261.237 33.9954C263.588 36.5177 264.778 39.692 264.778 43.5322L264.679 45.5869H264.665ZM252.032 35.7809C250.475 35.7809 249.186 36.206 248.181 37.0704C247.175 37.9348 246.524 39.111 246.226 40.613H257.825C257.57 39.1535 256.932 37.9773 255.927 37.0987C254.921 36.2201 253.619 35.7809 252.032 35.7809Z" fill="#007C94"/>
<path d="M283.882 30.6086V37.0987C283.4 36.9995 282.933 36.957 282.522 36.957C280.469 36.957 278.939 37.4955 277.92 38.5725C276.9 39.6494 276.39 41.3357 276.39 43.6455V56.3708H269.465V30.8069H275.852V34.1229C277.311 31.7564 279.718 30.566 283.06 30.566L283.882 30.6086Z" fill="#007C94"/>
<path d="M134.039 60.1544V70.8957H132.935V60.1544H134.039Z" fill="#007C94"/>
<path d="M144.689 66.3895V70.8816H143.612V66.1769C143.612 65.4826 143.457 64.9299 143.131 64.5331C142.805 64.1363 142.324 63.9379 141.672 63.9379C141.021 63.9379 140.497 64.1505 140.086 64.5756C139.675 65.0007 139.463 65.5817 139.463 66.3044V70.8816H138.387V63.1869H139.421V64.3631C139.916 63.4561 140.723 63.0027 141.856 63.0027C143.074 63.0027 143.91 63.4987 144.363 64.4906C144.604 64.0797 144.958 63.7254 145.425 63.442C145.892 63.1586 146.445 63.0169 147.068 63.0169C147.96 63.0169 148.654 63.3003 149.149 63.8529C149.645 64.4198 149.886 65.1283 149.886 65.9785V70.8957H148.81V66.1911C148.81 65.5109 148.654 64.9582 148.328 64.5615C148.017 64.1647 147.535 63.9521 146.884 63.9521C146.232 63.9521 145.722 64.1647 145.298 64.5898C144.873 65.0149 144.674 65.6243 144.674 66.4036L144.689 66.3895Z" fill="#007C94"/>
<path d="M155.055 69.4928V74.0275H153.979V63.1869H155.012V64.604C155.621 63.5412 156.584 63.0027 157.93 63.0027C159.062 63.0027 159.955 63.3995 160.606 64.1789C161.258 64.9582 161.569 65.9218 161.569 67.0413C161.569 68.1608 161.243 69.1102 160.606 69.8896C159.955 70.669 159.077 71.0658 157.93 71.0658C156.584 71.0658 155.635 70.5415 155.055 69.4928ZM155.026 67.0413C155.026 67.9057 155.267 68.6284 155.749 69.2236C156.23 69.8046 156.896 70.1022 157.731 70.1022C158.567 70.1022 159.232 69.8046 159.728 69.2236C160.224 68.6426 160.479 67.9199 160.479 67.0413C160.479 66.1627 160.224 65.44 159.728 64.8449C159.232 64.2639 158.567 63.9663 157.731 63.9663C156.896 63.9663 156.23 64.2639 155.749 64.8307C155.267 65.4117 155.026 66.1486 155.026 67.0271V67.0413Z" fill="#007C94"/>
<path d="M168.876 63.1302V64.1363C168.749 64.1363 168.636 64.1222 168.494 64.1222C167.814 64.1222 167.248 64.3205 166.837 64.7315C166.426 65.1424 166.2 65.7376 166.2 66.5028V70.8674H165.124V63.1727H166.157V64.3631C166.341 64.0371 166.639 63.7395 167.05 63.4845C167.46 63.2294 167.984 63.1019 168.621 63.1019H168.876V63.1302Z" fill="#007C94"/>
<path d="M178.507 67.3531H172.106C172.162 68.1608 172.431 68.8268 172.927 69.337C173.423 69.8471 174.06 70.1022 174.853 70.1022C175.434 70.1022 175.929 69.9463 176.368 69.6487C176.807 69.3511 177.105 68.9544 177.275 68.4726H178.393C178.167 69.2378 177.728 69.8613 177.105 70.3431C176.481 70.8249 175.717 71.0658 174.839 71.0658C173.663 71.0658 172.743 70.669 172.063 69.8896C171.383 69.1102 171.043 68.1466 171.043 67.0271C171.043 65.9077 171.397 64.9724 172.091 64.1789C172.785 63.3853 173.706 63.0027 174.825 63.0027C175.943 63.0027 176.836 63.3711 177.515 64.1222C178.195 64.8732 178.535 65.8085 178.535 66.928V67.3389L178.507 67.3531ZM174.796 63.9805C174.074 63.9805 173.465 64.2214 172.984 64.689C172.502 65.1566 172.219 65.7518 172.12 66.4887H177.43C177.36 65.7376 177.09 65.1283 176.623 64.6748C176.156 64.2214 175.547 63.9946 174.796 63.9946V63.9805Z" fill="#007C94"/>
<path d="M184.554 71.0658C183.52 71.0658 182.741 70.8249 182.231 70.3289C181.721 69.8471 181.438 69.2236 181.396 68.4726H182.486C182.528 68.9827 182.727 69.3936 183.067 69.6771C183.421 69.9746 183.916 70.1163 184.554 70.1163C185.191 70.1163 185.686 70.003 186.04 69.7621C186.395 69.5212 186.579 69.2094 186.579 68.8127C186.579 68.4159 186.409 68.1041 186.083 67.9057C185.757 67.7073 185.361 67.5798 184.893 67.509C184.426 67.4381 183.959 67.3531 183.491 67.2539C183.024 67.1547 182.628 66.9421 182.302 66.6304C181.976 66.3044 181.806 65.851 181.806 65.27C181.806 64.6465 182.061 64.108 182.571 63.6687C183.081 63.2294 183.775 63.0027 184.653 63.0027C185.616 63.0027 186.338 63.2436 186.805 63.7396C187.273 64.2355 187.527 64.8024 187.598 65.44H186.522C186.465 65.0007 186.295 64.6323 185.984 64.3631C185.672 64.0797 185.219 63.9521 184.639 63.9521C184.058 63.9521 183.619 64.0655 183.321 64.3064C183.01 64.5473 182.854 64.8449 182.854 65.1991C182.854 65.5251 182.982 65.7801 183.222 65.9644C183.463 66.1486 183.76 66.2761 184.1 66.3611C184.44 66.4462 184.823 66.5312 185.233 66.6304C185.644 66.7296 186.026 66.8146 186.38 66.8996C186.734 66.9846 187.032 67.1972 187.258 67.5231C187.485 67.8632 187.612 68.2883 187.612 68.8127C187.612 69.4362 187.343 69.9746 186.819 70.4139C186.295 70.8532 185.531 71.08 184.539 71.08L184.554 71.0658Z" fill="#007C94"/>
<path d="M193.517 71.0658C192.484 71.0658 191.705 70.8249 191.195 70.3289C190.685 69.8471 190.402 69.2236 190.359 68.4726H191.45C191.492 68.9827 191.691 69.3936 192.03 69.6771C192.384 69.9746 192.88 70.1163 193.517 70.1163C194.155 70.1163 194.65 70.003 195.004 69.7621C195.358 69.5212 195.543 69.2094 195.543 68.8127C195.543 68.4159 195.373 68.1041 195.047 67.9057C194.721 67.7073 194.325 67.5798 193.857 67.509C193.39 67.4381 192.923 67.3531 192.455 67.2539C191.988 67.1547 191.591 66.9421 191.266 66.6304C190.94 66.3044 190.77 65.851 190.77 65.27C190.77 64.6465 191.025 64.108 191.535 63.6687C192.045 63.2294 192.739 63.0027 193.617 63.0027C194.58 63.0027 195.302 63.2436 195.769 63.7396C196.236 64.2355 196.491 64.8024 196.562 65.44H195.486C195.429 65.0007 195.259 64.6323 194.948 64.3631C194.636 64.0797 194.183 63.9521 193.602 63.9521C193.022 63.9521 192.583 64.0655 192.285 64.3064C191.974 64.5473 191.818 64.8449 191.818 65.1991C191.818 65.5251 191.945 65.7801 192.186 65.9644C192.427 66.1486 192.724 66.2761 193.064 66.3611C193.404 66.4462 193.786 66.5312 194.197 66.6304C194.608 66.7296 194.99 66.8146 195.344 66.8996C195.698 66.9846 195.996 67.1972 196.222 67.5231C196.449 67.8632 196.576 68.2883 196.576 68.8127C196.576 69.4362 196.307 69.9746 195.783 70.4139C195.259 70.8532 194.495 71.08 193.503 71.08L193.517 71.0658Z" fill="#007C94"/>
<path d="M202.383 71.0658C201.49 71.0658 200.811 70.8674 200.343 70.4564C199.89 70.0455 199.649 69.4786 199.649 68.7701C199.649 67.4806 200.612 66.7012 202.538 66.4461L205.243 66.0919V65.8793C205.243 64.5756 204.521 63.9238 203.062 63.9238C201.83 63.9238 201.122 64.4339 200.91 65.4542H199.834C199.947 64.7031 200.258 64.108 200.796 63.6687C201.32 63.2294 202.099 63.0027 203.105 63.0027C204.167 63.0027 204.974 63.2577 205.512 63.782C206.05 64.3064 206.32 65.0007 206.32 65.8935V69.2661C206.32 70.0171 206.39 70.5556 206.546 70.8815H205.484C205.371 70.584 205.314 70.1447 205.314 69.5637C204.733 70.5556 203.742 71.0658 202.368 71.0658H202.383ZM204.025 61.4722C203.728 61.4722 203.374 61.373 202.963 61.1746C202.553 60.9763 202.241 60.8771 202.029 60.8771C201.675 60.8771 201.462 61.0613 201.391 61.4155H200.556C200.612 60.9763 200.768 60.622 201.037 60.3669C201.306 60.1118 201.66 59.9843 202.085 59.9843C202.383 59.9843 202.722 60.0835 203.133 60.2819C203.544 60.4803 203.855 60.5795 204.068 60.5795C204.422 60.5795 204.634 60.3953 204.705 60.041H205.541C205.484 60.4803 205.328 60.8346 205.073 61.0896C204.818 61.3447 204.464 61.4722 204.025 61.4722ZM205.243 66.9421L202.694 67.2822C201.986 67.3672 201.476 67.5373 201.179 67.7923C200.867 68.0332 200.712 68.3592 200.712 68.7701C200.712 69.2661 200.881 69.6345 201.221 69.8471C201.561 70.0596 201.986 70.173 202.496 70.173C203.346 70.173 204.025 69.9321 204.521 69.4503C205.002 68.9685 205.257 68.43 205.257 67.8348V66.9421H205.243Z" fill="#007C94"/>
<path d="M213.74 71.0658C212.565 71.0658 211.63 70.669 210.908 69.8755C210.186 69.0819 209.832 68.1325 209.832 67.0413C209.832 65.9502 210.186 64.9866 210.908 64.193C211.63 63.3995 212.579 63.0027 213.74 63.0027C214.901 63.0027 215.864 63.3995 216.587 64.193C217.309 64.9866 217.663 65.936 217.663 67.0413C217.663 68.1466 217.309 69.0819 216.587 69.8755C215.864 70.669 214.916 71.0658 213.74 71.0658ZM210.908 67.0413C210.908 67.9199 211.177 68.6426 211.701 69.2236C212.225 69.8046 212.905 70.088 213.74 70.088C214.576 70.088 215.27 69.7904 215.794 69.2236C216.318 68.6426 216.572 67.9199 216.572 67.0413C216.572 66.1627 216.303 65.4259 215.794 64.8449C215.27 64.2639 214.59 63.9805 213.74 63.9805C212.89 63.9805 212.211 64.278 211.687 64.8449C211.163 65.4259 210.908 66.1627 210.908 67.0413Z" fill="#007C94"/>
<path d="M232.632 64.5898V63.1869H233.666V70.5131C233.666 71.6042 233.354 72.4828 232.731 73.1772C232.108 73.8574 231.216 74.2116 230.069 74.2116C229.063 74.2116 228.256 73.9707 227.675 73.4889C227.081 73.0071 226.712 72.4261 226.571 71.7601H227.675C227.831 72.2136 228.114 72.5679 228.539 72.8371C228.964 73.1063 229.488 73.2339 230.097 73.2339C230.876 73.2339 231.485 73.0071 231.924 72.5395C232.363 72.086 232.59 71.4767 232.59 70.754V69.3228C231.995 70.3572 231.046 70.8815 229.729 70.8815C228.624 70.8815 227.732 70.4989 227.081 69.7337C226.429 68.9685 226.104 68.0332 226.104 66.9563C226.104 65.8793 226.429 64.944 227.081 64.1788C227.732 63.4136 228.61 63.031 229.729 63.031C231.074 63.031 232.037 63.5553 232.632 64.6181V64.5898ZM231.896 69.0677C232.391 68.5009 232.632 67.7923 232.632 66.9421C232.632 66.0919 232.391 65.3833 231.896 64.8165C231.4 64.2497 230.748 63.9804 229.927 63.9804C229.106 63.9804 228.44 64.2639 227.945 64.8307C227.449 65.3975 227.194 66.106 227.194 66.9421C227.194 67.7782 227.449 68.5009 227.945 69.0677C228.44 69.6345 229.106 69.9179 229.927 69.9179C230.748 69.9179 231.414 69.6345 231.896 69.0677Z" fill="#007C94"/>
<path d="M241.497 63.1302V64.1363C241.369 64.1363 241.256 64.1222 241.115 64.1222C240.435 64.1222 239.868 64.3205 239.458 64.7315C239.047 65.1424 238.82 65.7376 238.82 66.5028V70.8674H237.744V63.1727H238.778V64.3631C238.962 64.0371 239.259 63.7395 239.67 63.4845C240.081 63.2294 240.605 63.1019 241.242 63.1019H241.497V63.1302Z" fill="#007C94"/>
<path d="M246.581 71.0658C245.689 71.0658 245.009 70.8674 244.542 70.4564C244.088 70.0455 243.848 69.4787 243.848 68.7701C243.848 67.4806 244.811 66.7012 246.737 66.4461L249.441 66.0919V65.8793C249.441 64.5756 248.719 63.9238 247.261 63.9238C246.029 63.9238 245.32 64.4339 245.108 65.4542H244.032C244.145 64.7031 244.457 64.108 244.995 63.6687C245.519 63.2294 246.298 63.0027 247.303 63.0027C248.365 63.0027 249.172 63.2577 249.711 63.782C250.249 64.3064 250.518 65.0007 250.518 65.8935V69.2661C250.518 70.0171 250.589 70.5556 250.744 70.8815H249.682C249.569 70.584 249.512 70.1447 249.512 69.5637C248.932 70.5556 247.94 71.0658 246.567 71.0658H246.581ZM249.456 66.9421L246.907 67.2822C246.198 67.3672 245.689 67.5373 245.391 67.7923C245.08 68.0332 244.924 68.3592 244.924 68.7701C244.924 69.2661 245.094 69.6345 245.434 69.8471C245.774 70.0596 246.198 70.173 246.708 70.173C247.558 70.173 248.238 69.9321 248.733 69.4503C249.215 68.9685 249.47 68.43 249.47 67.8349V66.9421H249.456ZM247.643 59.4033H248.804L247.643 61.9682H246.652L247.643 59.4033Z" fill="#007C94"/>
<path d="M254.979 63.1869V61.9115C254.979 61.118 255.191 60.537 255.602 60.1402C256.012 59.7434 256.565 59.545 257.259 59.545L257.768 59.5734V60.5512C257.669 60.537 257.528 60.5228 257.344 60.5228C256.905 60.5228 256.579 60.6362 256.366 60.8346C256.154 61.0471 256.041 61.3872 256.041 61.869V63.1869H257.783V64.0938H256.041V70.8816H254.964V64.0938H253.463V63.1869H254.964H254.979ZM259.921 61.288C259.694 61.288 259.51 61.2172 259.369 61.0896C259.227 60.9479 259.156 60.7779 259.156 60.5512C259.156 60.3244 259.227 60.1402 259.369 59.9985C259.51 59.8568 259.694 59.7859 259.921 59.7859C260.148 59.7859 260.332 59.8568 260.473 59.9985C260.615 60.1402 260.686 60.3244 260.686 60.5512C260.686 60.7779 260.615 60.9479 260.473 61.0896C260.332 61.2314 260.148 61.288 259.921 61.288ZM259.383 70.8957V63.2011H260.459V70.8957H259.383Z" fill="#007C94"/>
<path d="M265.302 69.8755C264.608 69.0819 264.254 68.1325 264.254 67.0413C264.254 65.9502 264.608 65.0007 265.302 64.193C265.996 63.3995 266.917 63.0027 268.05 63.0027C269.041 63.0027 269.848 63.2861 270.471 63.8388C271.094 64.4056 271.491 65.0858 271.647 65.9218H270.556C270.4 65.3125 270.103 64.8449 269.664 64.4906C269.225 64.1363 268.687 63.9663 268.05 63.9663C267.242 63.9663 266.591 64.2497 266.095 64.8307C265.6 65.4117 265.345 66.1344 265.345 67.0413C265.345 67.9482 265.6 68.6568 266.095 69.2378C266.591 69.8188 267.242 70.1022 268.05 70.1022C268.701 70.1022 269.239 69.9321 269.664 69.5779C270.103 69.2236 270.4 68.756 270.556 68.1466H271.647C271.491 68.9685 271.094 69.6629 270.471 70.2297C269.848 70.7824 269.041 71.0658 268.05 71.0658C266.917 71.0658 266.01 70.669 265.302 69.8755V69.8755Z" fill="#007C94"/>
<path d="M277.17 71.0658C276.278 71.0658 275.598 70.8674 275.13 70.4564C274.677 70.0455 274.437 69.4787 274.437 68.7701C274.437 67.4806 275.4 66.7012 277.325 66.4462L280.03 66.0919V65.8793C280.03 64.5756 279.308 63.9238 277.849 63.9238C276.617 63.9238 275.909 64.4339 275.697 65.4542H274.621C274.734 64.7032 275.045 64.108 275.584 63.6687C276.108 63.2294 276.886 63.0027 277.892 63.0027C278.954 63.0027 279.761 63.2578 280.299 63.7821C280.838 64.3064 281.107 65.0007 281.107 65.8935V69.2661C281.107 70.0172 281.177 70.5556 281.333 70.8816H280.271C280.158 70.584 280.101 70.1447 280.101 69.5637C279.521 70.5556 278.529 71.0658 277.156 71.0658H277.17ZM280.045 66.9421L277.495 67.2822C276.787 67.3672 276.278 67.5373 275.98 67.7924C275.669 68.0333 275.513 68.3592 275.513 68.7701C275.513 69.2661 275.683 69.6346 276.023 69.8471C276.363 70.0597 276.787 70.173 277.297 70.173C278.147 70.173 278.827 69.9321 279.322 69.4503C279.804 68.9685 280.059 68.43 280.059 67.8349V66.9421H280.045Z" fill="#007C94"/>
</svg>
