<svg width="492" height="163" viewBox="0 0 492 163" fill="none" xmlns="http://www.w3.org/2000/svg">
<path d="M196.603 38.7043L177.743 9.7309L138.076 74.0814L95.8389 12.6307L44.3276 96.6029H79.2611L96.1513 69.5868L111.191 96.6029H161.429L196.603 38.7043Z" fill="#007C94"/>
<path d="M196.603 99.5027V124.296H27.1011L42.5256 99.5027H196.603Z" fill="#31954C"/>
<path d="M60.4971 127.171L43.679 154.526H8.28906L25.3233 127.171H60.4971Z" fill="#007C94"/>
<path d="M235.645 37.5444L252.847 60.4284L270.05 37.5444H281.126V96.6029H269.545V56.3446L253.015 77.7303H252.679L236.149 56.3446V96.6029H224.569V37.5444H235.645Z" fill="#007C94"/>
<path d="M305.704 97.6178C300.851 97.6178 297.103 96.4096 294.46 93.9689C291.817 91.5283 290.496 88.2902 290.496 84.2306C290.496 80.4125 291.865 77.392 294.604 75.1205C297.343 72.849 301.571 71.2783 307.266 70.3842L318.87 68.596V68.1852C318.87 63.9081 316.275 61.7816 311.086 61.7816C306.232 61.7816 303.566 63.5698 303.061 67.0978H291.481C291.865 62.8207 293.643 59.2443 296.766 56.3687C299.914 53.4931 304.647 52.0432 310.99 52.0432C317.332 52.0432 322.017 53.4689 325.213 56.2962C328.408 59.1235 330.018 63.1106 330.018 68.2819V88.8218C330.018 92.0841 330.426 94.6939 331.267 96.6512H319.927C319.927 96.6512 319.807 96.4579 319.759 96.0713C319.711 95.6846 319.639 95.0805 319.543 94.2831C319.471 93.4856 319.423 92.664 319.423 91.8424C316.732 95.7329 312.143 97.6661 305.704 97.6661V97.6178ZM318.846 77.0778L308.443 78.8177C304.022 79.5909 301.812 81.2825 301.812 83.9406C301.812 86.9612 303.998 88.4835 308.347 88.4835C311.71 88.4835 314.305 87.6136 316.131 85.8496C317.957 84.0856 318.87 81.7416 318.87 78.8418V77.102L318.846 77.0778Z" fill="#007C94"/>
<path d="M355.894 97.6178C344.097 97.6178 337.827 92.5674 337.13 82.4907H349.047C349.167 84.1097 349.791 85.4388 350.993 86.5262C352.17 87.6136 353.924 88.1452 356.254 88.1452C358.585 88.1452 360.147 87.7828 361.3 87.0578C362.453 86.3329 363.03 85.3663 363.03 84.1581C363.03 82.829 362.213 81.8383 360.555 81.21C358.897 80.5817 356.903 80.0501 354.549 79.6634C352.194 79.2768 349.84 78.7452 347.485 78.0927C345.13 77.4403 343.112 76.1354 341.454 74.1781C339.797 72.2449 338.98 69.6593 338.98 66.4454C338.98 62.4099 340.59 58.9785 343.785 56.2237C346.98 53.4448 351.161 52.0674 356.351 52.0674C362.261 52.0674 366.634 53.5656 369.493 56.562C372.352 59.5584 373.913 62.9657 374.13 66.7837H362.789C362.669 65.2855 362.069 64.0289 360.939 63.0381C359.81 62.0474 358.249 61.5399 356.278 61.5399C354.404 61.5399 352.939 61.9507 351.906 62.7482C350.849 63.5456 350.344 64.5605 350.344 65.7929C350.344 67.122 351.161 68.0886 352.819 68.7168C354.476 69.321 356.471 69.8043 358.825 70.1667C361.18 70.5292 363.51 71.0367 365.865 71.7133C368.219 72.3899 370.213 73.7189 371.871 75.7004C373.529 77.6819 374.346 80.3642 374.346 83.6748C374.346 87.7344 372.712 91.0692 369.421 93.7031C366.129 96.3371 361.66 97.642 355.99 97.642L355.894 97.6178Z" fill="#007C94"/>
<path d="M402.287 86.1396V96.3612C400.966 96.6995 399.116 96.8687 396.738 96.8687C387.848 96.8687 383.427 92.4224 383.427 83.554V62.3374H377.565V53.0098H383.427V42.2082H395.176V53.0098H402.384V62.3374H395.176V82.2974C395.176 85.1247 396.641 86.5504 399.549 86.5504L402.287 86.1396Z" fill="#007C94"/>
<path d="M449.018 78.2378H417.592C417.976 81.2342 419.082 83.5298 420.908 85.1005C422.733 86.6712 425.136 87.4687 428.115 87.4687C429.989 87.4687 431.695 87.0579 433.209 86.2605C434.722 85.463 435.803 84.2789 436.476 82.7324H448.297C447.024 87.1787 444.525 90.7551 440.801 93.5099C437.077 96.2646 432.728 97.6178 427.779 97.6178C421.388 97.6178 416.15 95.4914 412.066 91.2142C407.982 86.9371 405.939 81.4517 405.939 74.7339C405.939 68.0161 407.982 62.8449 412.066 58.5194C416.15 54.1939 421.364 52.0191 427.707 52.0191C434.05 52.0191 439.215 54.1698 443.203 58.4711C447.192 62.7724 449.21 68.1853 449.21 74.7339L449.042 78.2378H449.018ZM427.587 61.5158C424.944 61.5158 422.757 62.2408 421.052 63.7148C419.346 65.1889 418.241 67.1945 417.736 69.756H437.413C436.981 67.267 435.9 65.2613 434.194 63.7631C432.488 62.2649 430.278 61.5158 427.587 61.5158Z" fill="#007C94"/>
<path d="M481.621 52.6957V63.7631C480.804 63.5939 480.011 63.5214 479.314 63.5214C475.831 63.5214 473.236 64.4397 471.506 66.2762C469.776 68.1127 468.911 70.9883 468.911 74.9272V96.627H457.163V53.034H467.998V58.6885C470.473 54.653 474.557 52.6232 480.227 52.6232L481.621 52.6957Z" fill="#007C94"/>
<path d="M227.404 103.079V121.396H225.53V103.079H227.404Z" fill="#007C94"/>
<path d="M245.472 113.712V121.372H243.646V113.349C243.646 112.165 243.382 111.223 242.829 110.546C242.276 109.869 241.459 109.531 240.354 109.531C239.249 109.531 238.36 109.893 237.663 110.618C236.967 111.343 236.606 112.334 236.606 113.567V121.372H234.78V108.25H236.534V110.256C237.375 108.709 238.745 107.936 240.667 107.936C242.733 107.936 244.15 108.782 244.919 110.473C245.328 109.773 245.928 109.169 246.721 108.685C247.514 108.202 248.451 107.96 249.508 107.96C251.022 107.96 252.199 108.444 253.04 109.386C253.881 110.353 254.289 111.561 254.289 113.011V121.396H252.463V113.373C252.463 112.213 252.199 111.271 251.646 110.594C251.118 109.918 250.301 109.555 249.196 109.555C248.091 109.555 247.226 109.918 246.505 110.643C245.784 111.368 245.448 112.407 245.448 113.736L245.472 113.712Z" fill="#007C94"/>
<path d="M263.058 119.004V126.736H261.232V108.25H262.986V110.667C264.019 108.854 265.653 107.936 267.936 107.936C269.858 107.936 271.371 108.613 272.476 109.942C273.582 111.271 274.11 112.914 274.11 114.823C274.11 116.732 273.558 118.351 272.476 119.68C271.371 121.009 269.882 121.686 267.936 121.686C265.653 121.686 264.043 120.792 263.058 119.004ZM263.01 114.823C263.01 116.297 263.419 117.53 264.236 118.544C265.053 119.535 266.182 120.043 267.599 120.043C269.017 120.043 270.146 119.535 270.987 118.544C271.828 117.554 272.26 116.321 272.26 114.823C272.26 113.325 271.828 112.092 270.987 111.078C270.146 110.087 269.017 109.579 267.599 109.579C266.182 109.579 265.053 110.087 264.236 111.053C263.419 112.044 263.01 113.301 263.01 114.799V114.823Z" fill="#007C94"/>
<path d="M286.507 108.154V109.869C286.291 109.869 286.099 109.845 285.859 109.845C284.706 109.845 283.744 110.184 283.048 110.884C282.351 111.585 281.967 112.6 281.967 113.905V121.348H280.141V108.226H281.895V110.256C282.207 109.7 282.711 109.193 283.408 108.758C284.105 108.323 284.994 108.105 286.075 108.105H286.507V108.154Z" fill="#007C94"/>
<path d="M302.845 115.355H291.986C292.082 116.732 292.538 117.868 293.379 118.738C294.22 119.608 295.301 120.043 296.647 120.043C297.632 120.043 298.472 119.777 299.217 119.269C299.962 118.762 300.467 118.085 300.755 117.264H302.653C302.269 118.569 301.524 119.632 300.467 120.453C299.409 121.275 298.112 121.686 296.623 121.686C294.628 121.686 293.067 121.009 291.913 119.68C290.76 118.351 290.184 116.708 290.184 114.799C290.184 112.89 290.784 111.295 291.961 109.942C293.139 108.589 294.7 107.936 296.598 107.936C298.497 107.936 300.01 108.564 301.163 109.845C302.317 111.126 302.893 112.721 302.893 114.63V115.331L302.845 115.355ZM296.55 109.604C295.325 109.604 294.292 110.014 293.475 110.812C292.658 111.609 292.178 112.624 292.01 113.881H301.019C300.899 112.6 300.443 111.561 299.65 110.788C298.857 110.014 297.824 109.628 296.55 109.628V109.604Z" fill="#007C94"/>
<path d="M313.104 121.686C311.35 121.686 310.029 121.275 309.164 120.429C308.299 119.608 307.819 118.544 307.747 117.264H309.597C309.669 118.134 310.005 118.834 310.582 119.318C311.182 119.825 312.023 120.067 313.104 120.067C314.186 120.067 315.026 119.874 315.627 119.463C316.228 119.052 316.54 118.52 316.54 117.844C316.54 117.167 316.252 116.635 315.699 116.297C315.147 115.959 314.474 115.741 313.681 115.621C312.888 115.5 312.095 115.355 311.302 115.186C310.51 115.016 309.837 114.654 309.284 114.122C308.732 113.567 308.443 112.793 308.443 111.803C308.443 110.739 308.876 109.821 309.741 109.072C310.606 108.323 311.783 107.936 313.273 107.936C314.906 107.936 316.132 108.347 316.924 109.193C317.717 110.038 318.15 111.005 318.27 112.092H316.444C316.348 111.343 316.06 110.715 315.531 110.256C315.002 109.773 314.234 109.555 313.249 109.555C312.263 109.555 311.519 109.749 311.014 110.159C310.486 110.57 310.221 111.078 310.221 111.682C310.221 112.237 310.437 112.672 310.846 112.987C311.254 113.301 311.759 113.518 312.336 113.663C312.912 113.808 313.561 113.953 314.258 114.122C314.954 114.291 315.603 114.436 316.204 114.581C316.804 114.726 317.309 115.089 317.693 115.645C318.078 116.225 318.294 116.95 318.294 117.844C318.294 118.907 317.837 119.825 316.948 120.574C316.06 121.323 314.762 121.71 313.08 121.71L313.104 121.686Z" fill="#007C94"/>
<path d="M328.312 121.686C326.558 121.686 325.237 121.275 324.372 120.429C323.507 119.608 323.027 118.544 322.955 117.264H324.805C324.877 118.134 325.213 118.834 325.79 119.318C326.39 119.825 327.231 120.067 328.312 120.067C329.393 120.067 330.234 119.874 330.835 119.463C331.436 119.052 331.748 118.52 331.748 117.844C331.748 117.167 331.46 116.635 330.907 116.297C330.355 115.959 329.682 115.741 328.889 115.621C328.096 115.5 327.303 115.355 326.51 115.186C325.718 115.016 325.045 114.654 324.492 114.122C323.94 113.567 323.651 112.793 323.651 111.803C323.651 110.739 324.084 109.821 324.949 109.072C325.814 108.323 326.991 107.936 328.481 107.936C330.114 107.936 331.34 108.347 332.132 109.193C332.925 110.038 333.358 111.005 333.478 112.092H331.652C331.556 111.343 331.268 110.715 330.739 110.256C330.21 109.773 329.442 109.555 328.457 109.555C327.471 109.555 326.727 109.749 326.222 110.159C325.694 110.57 325.429 111.078 325.429 111.682C325.429 112.237 325.645 112.672 326.054 112.987C326.462 113.301 326.967 113.518 327.544 113.663C328.12 113.808 328.769 113.953 329.466 114.122C330.162 114.291 330.811 114.436 331.412 114.581C332.012 114.726 332.517 115.089 332.901 115.645C333.286 116.225 333.502 116.95 333.502 117.844C333.502 118.907 333.045 119.825 332.156 120.574C331.268 121.323 329.97 121.71 328.288 121.71L328.312 121.686Z" fill="#007C94"/>
<path d="M343.353 121.686C341.839 121.686 340.686 121.348 339.893 120.647C339.124 119.946 338.716 118.979 338.716 117.771C338.716 115.572 340.35 114.243 343.617 113.808L348.206 113.204V112.842C348.206 110.618 346.981 109.507 344.506 109.507C342.416 109.507 341.215 110.377 340.854 112.117H339.028C339.22 110.836 339.749 109.821 340.662 109.072C341.551 108.323 342.872 107.936 344.578 107.936C346.38 107.936 347.75 108.371 348.662 109.265C349.575 110.159 350.032 111.343 350.032 112.866V118.617C350.032 119.898 350.152 120.816 350.416 121.372H348.614C348.422 120.864 348.326 120.115 348.326 119.124C347.341 120.816 345.659 121.686 343.329 121.686H343.353ZM346.14 105.326C345.635 105.326 345.035 105.157 344.338 104.819C343.641 104.481 343.113 104.311 342.752 104.311C342.152 104.311 341.791 104.626 341.671 105.23H340.253C340.35 104.481 340.614 103.877 341.07 103.442C341.527 103.007 342.127 102.789 342.848 102.789C343.353 102.789 343.929 102.958 344.626 103.297C345.323 103.635 345.852 103.804 346.212 103.804C346.813 103.804 347.173 103.49 347.293 102.886H348.711C348.614 103.635 348.35 104.239 347.918 104.674C347.485 105.109 346.885 105.326 346.14 105.326ZM348.206 114.654L343.881 115.234C342.68 115.379 341.815 115.669 341.311 116.104C340.782 116.515 340.518 117.07 340.518 117.771C340.518 118.617 340.806 119.245 341.383 119.608C341.959 119.97 342.68 120.164 343.545 120.164C344.987 120.164 346.14 119.753 346.981 118.931C347.798 118.11 348.23 117.191 348.23 116.176V114.654H348.206Z" fill="#007C94"/>
<path d="M362.621 121.686C360.627 121.686 359.041 121.009 357.816 119.656C356.591 118.303 355.99 116.684 355.99 114.823C355.99 112.962 356.591 111.319 357.816 109.966C359.041 108.613 360.651 107.936 362.621 107.936C364.591 107.936 366.225 108.613 367.451 109.966C368.676 111.319 369.276 112.938 369.276 114.823C369.276 116.708 368.676 118.303 367.451 119.656C366.225 121.009 364.615 121.686 362.621 121.686ZM357.816 114.823C357.816 116.321 358.273 117.554 359.162 118.544C360.051 119.535 361.204 120.018 362.621 120.018C364.039 120.018 365.216 119.511 366.105 118.544C366.994 117.554 367.426 116.321 367.426 114.823C367.426 113.325 366.97 112.068 366.105 111.078C365.216 110.087 364.063 109.604 362.621 109.604C361.18 109.604 360.027 110.111 359.138 111.078C358.249 112.068 357.816 113.325 357.816 114.823Z" fill="#007C94"/>
<path d="M394.672 110.643V108.25H396.425V120.743C396.425 122.604 395.897 124.102 394.84 125.286C393.783 126.446 392.269 127.05 390.323 127.05C388.617 127.05 387.248 126.64 386.263 125.818C385.253 124.996 384.629 124.006 384.389 122.87H386.263C386.527 123.643 387.007 124.247 387.728 124.706C388.449 125.166 389.338 125.383 390.371 125.383C391.692 125.383 392.726 124.996 393.47 124.199C394.215 123.426 394.6 122.387 394.6 121.154V118.714C393.59 120.478 391.981 121.372 389.746 121.372C387.872 121.372 386.359 120.719 385.253 119.414C384.148 118.109 383.596 116.515 383.596 114.678C383.596 112.842 384.148 111.247 385.253 109.942C386.359 108.637 387.848 107.984 389.746 107.984C392.029 107.984 393.663 108.879 394.672 110.691V110.643ZM393.422 118.279C394.263 117.312 394.672 116.104 394.672 114.654C394.672 113.204 394.263 111.996 393.422 111.029C392.581 110.063 391.476 109.604 390.083 109.604C388.689 109.604 387.56 110.087 386.719 111.053C385.878 112.02 385.446 113.228 385.446 114.654C385.446 116.08 385.878 117.312 386.719 118.279C387.56 119.245 388.689 119.729 390.083 119.729C391.476 119.729 392.605 119.245 393.422 118.279Z" fill="#007C94"/>
<path d="M409.712 108.154V109.869C409.496 109.869 409.304 109.845 409.063 109.845C407.91 109.845 406.949 110.184 406.252 110.884C405.556 111.585 405.171 112.6 405.171 113.905V121.348H403.345V108.226H405.099V110.256C405.411 109.7 405.916 109.193 406.613 108.758C407.309 108.323 408.198 108.105 409.28 108.105H409.712V108.154Z" fill="#007C94"/>
<path d="M418.337 121.686C416.824 121.686 415.67 121.348 414.877 120.647C414.109 119.946 413.7 118.979 413.7 117.771C413.7 115.572 415.334 114.243 418.601 113.808L423.19 113.204V112.842C423.19 110.618 421.965 109.507 419.49 109.507C417.4 109.507 416.199 110.377 415.838 112.117H414.013C414.205 110.836 414.733 109.821 415.646 109.072C416.535 108.323 417.857 107.936 419.562 107.936C421.364 107.936 422.734 108.371 423.647 109.265C424.56 110.159 425.016 111.343 425.016 112.866V118.617C425.016 119.898 425.136 120.816 425.401 121.372H423.599C423.407 120.864 423.311 120.115 423.311 119.124C422.325 120.816 420.644 121.686 418.313 121.686H418.337ZM423.214 114.654L418.89 115.234C417.688 115.379 416.824 115.669 416.319 116.104C415.79 116.515 415.526 117.07 415.526 117.771C415.526 118.617 415.814 119.245 416.391 119.608C416.968 119.97 417.688 120.164 418.553 120.164C419.995 120.164 421.148 119.753 421.989 118.931C422.806 118.109 423.238 117.191 423.238 116.176V114.654H423.214ZM420.139 101.798H422.109L420.139 106.172H418.457L420.139 101.798Z" fill="#007C94"/>
<path d="M432.584 108.25V106.075C432.584 104.722 432.945 103.732 433.642 103.055C434.338 102.378 435.275 102.04 436.453 102.04L437.318 102.088V103.756C437.149 103.732 436.909 103.707 436.597 103.707C435.852 103.707 435.299 103.901 434.939 104.239C434.579 104.601 434.386 105.181 434.386 106.003V108.25H437.342V109.797H434.386V121.372H432.56V109.797H430.014V108.25H432.56H432.584ZM440.969 105.012C440.585 105.012 440.273 104.891 440.032 104.674C439.792 104.432 439.672 104.142 439.672 103.756C439.672 103.369 439.792 103.055 440.032 102.813C440.273 102.572 440.585 102.451 440.969 102.451C441.354 102.451 441.666 102.572 441.906 102.813C442.147 103.055 442.267 103.369 442.267 103.756C442.267 104.142 442.147 104.432 441.906 104.674C441.666 104.916 441.354 105.012 440.969 105.012ZM440.056 121.396V108.274H441.882V121.396H440.056Z" fill="#007C94"/>
<path d="M450.099 119.656C448.922 118.303 448.321 116.684 448.321 114.823C448.321 112.962 448.922 111.343 450.099 109.966C451.276 108.613 452.838 107.936 454.76 107.936C456.442 107.936 457.811 108.419 458.869 109.362C459.926 110.328 460.598 111.488 460.863 112.914H459.013C458.748 111.875 458.244 111.078 457.499 110.473C456.754 109.869 455.841 109.579 454.76 109.579C453.391 109.579 452.286 110.063 451.445 111.053C450.604 112.044 450.171 113.277 450.171 114.823C450.171 116.37 450.604 117.578 451.445 118.569C452.286 119.559 453.391 120.043 454.76 120.043C455.865 120.043 456.778 119.753 457.499 119.149C458.244 118.544 458.748 117.747 459.013 116.708H460.863C460.598 118.109 459.926 119.294 458.869 120.26C457.811 121.203 456.442 121.686 454.76 121.686C452.838 121.686 451.3 121.009 450.099 119.656Z" fill="#007C94"/>
<path d="M470.233 121.686C468.719 121.686 467.566 121.348 466.773 120.647C466.004 119.946 465.596 118.979 465.596 117.771C465.596 115.572 467.229 114.243 470.497 113.808L475.086 113.204V112.842C475.086 110.618 473.861 109.507 471.386 109.507C469.296 109.507 468.094 110.377 467.734 112.117H465.908C466.1 110.836 466.629 109.821 467.542 109.072C468.431 108.323 469.752 107.936 471.458 107.936C473.26 107.936 474.629 108.371 475.542 109.265C476.455 110.159 476.912 111.343 476.912 112.866V118.617C476.912 119.898 477.032 120.816 477.296 121.372H475.494C475.302 120.864 475.206 120.115 475.206 119.124C474.221 120.816 472.539 121.686 470.209 121.686H470.233ZM475.11 114.654L470.785 115.234C469.584 115.379 468.719 115.669 468.215 116.104C467.686 116.515 467.422 117.07 467.422 117.771C467.422 118.617 467.71 119.245 468.287 119.608C468.863 119.97 469.584 120.163 470.449 120.163C471.89 120.163 473.044 119.753 473.885 118.931C474.702 118.109 475.134 117.191 475.134 116.176V114.654H475.11Z" fill="#007C94"/>
</svg>
