<svg width="266" height="87" viewBox="0 0 266 87" fill="none" xmlns="http://www.w3.org/2000/svg">
<path d="M106.294 20.5172L96.0968 4.9574L74.651 39.516L51.8154 6.51468L23.9658 51.6109H42.8526L51.9843 37.1022L60.1157 51.6109H87.2769L106.294 20.5172Z" fill="#007C94"/>
<path d="M106.294 53.1682V66.4829H14.6523L22.9916 53.1682H106.294Z" fill="#31954C"/>
<path d="M32.7077 68.0272L23.6151 82.7176H4.48145L13.691 68.0272H32.7077Z" fill="#007C94"/>
<path d="M127.401 19.8943L136.702 32.1838L146.002 19.8943H151.99V51.6109H145.73V29.9906L136.793 41.4756H136.611L127.674 29.9906V51.6109H121.413V19.8943H127.401Z" fill="#007C94"/>
<path d="M165.279 52.1559C162.655 52.1559 160.629 51.507 159.2 50.1963C157.771 48.8856 157.057 47.1467 157.057 44.9665C157.057 42.916 157.797 41.2939 159.278 40.074C160.759 38.8541 163.045 38.0106 166.123 37.5305L172.397 36.5701V36.3495C172.397 34.0525 170.994 32.9105 168.189 32.9105C165.565 32.9105 164.123 33.8708 163.85 35.7655H157.589C157.797 33.4686 158.758 31.5479 160.447 30.0036C162.149 28.4593 164.707 27.6807 168.137 27.6807C171.566 27.6807 174.099 28.4463 175.827 29.9647C177.554 31.483 178.424 33.6243 178.424 36.4014V47.4322C178.424 49.1841 178.645 50.5856 179.1 51.6368H172.969C172.969 51.6368 172.904 51.533 172.878 51.3254C172.852 51.1177 172.813 50.7933 172.761 50.365C172.722 49.9368 172.696 49.4956 172.696 49.0543C171.241 51.1437 168.76 52.1819 165.279 52.1819V52.1559ZM172.384 41.1252L166.76 42.0595C164.37 42.4748 163.175 43.3832 163.175 44.8107C163.175 46.4329 164.357 47.2505 166.708 47.2505C168.526 47.2505 169.929 46.7833 170.916 45.8359C171.904 44.8886 172.397 43.6298 172.397 42.0725V41.1382L172.384 41.1252Z" fill="#007C94"/>
<path d="M192.414 52.1559C186.036 52.1559 182.646 49.4436 182.269 44.0321H188.712C188.777 44.9015 189.115 45.6153 189.764 46.1993C190.4 46.7832 191.349 47.0688 192.609 47.0688C193.869 47.0688 194.713 46.8741 195.337 46.4848C195.96 46.0955 196.272 45.5764 196.272 44.9275C196.272 44.2137 195.83 43.6817 194.934 43.3443C194.038 43.0069 192.959 42.7213 191.686 42.5137C190.413 42.3061 189.141 42.0206 187.868 41.6702C186.595 41.3198 185.503 40.619 184.607 39.5679C183.711 38.5297 183.269 37.1411 183.269 35.4151C183.269 33.2479 184.14 31.4051 185.867 29.9257C187.595 28.4333 189.855 27.6936 192.661 27.6936C195.856 27.6936 198.22 28.4982 199.766 30.1074C201.312 31.7166 202.156 33.5464 202.273 35.5968H196.142C196.077 34.7922 195.752 34.1174 195.142 33.5853C194.531 33.0532 193.687 32.7807 192.622 32.7807C191.609 32.7807 190.816 33.0013 190.258 33.4296C189.686 33.8578 189.413 34.4029 189.413 35.0647C189.413 35.7785 189.855 36.2976 190.751 36.635C191.647 36.9594 192.726 37.219 193.999 37.4136C195.272 37.6083 196.532 37.8808 197.805 38.2442C199.078 38.6075 200.156 39.3213 201.052 40.3854C201.948 41.4496 202.39 42.8901 202.39 44.6679C202.39 46.8481 201.507 48.639 199.727 50.0535C197.947 51.4681 195.531 52.1688 192.466 52.1688L192.414 52.1559Z" fill="#007C94"/>
<path d="M217.497 45.9917V51.4811C216.782 51.6628 215.782 51.7536 214.496 51.7536C209.69 51.7536 207.3 49.3658 207.3 44.6031V33.209H204.13V28.1998H207.3V22.3989H213.652V28.1998H217.549V33.209H213.652V43.9283C213.652 45.4467 214.444 46.2123 216.016 46.2123L217.497 45.9917Z" fill="#007C94"/>
<path d="M242.761 41.7481H225.771C225.979 43.3573 226.576 44.5902 227.564 45.4337C228.551 46.2772 229.85 46.7055 231.461 46.7055C232.474 46.7055 233.396 46.4849 234.214 46.0566C235.033 45.6283 235.617 44.9925 235.981 44.1619H242.372C241.683 46.5497 240.332 48.4704 238.319 49.9498C236.306 51.4292 233.955 52.1559 231.279 52.1559C227.823 52.1559 224.992 51.0139 222.784 48.717C220.575 46.42 219.471 43.4741 219.471 39.8664C219.471 36.2587 220.575 33.4816 222.784 31.1586C224.992 28.8357 227.81 27.6677 231.24 27.6677C234.669 27.6677 237.462 28.8227 239.618 31.1327C241.774 33.4426 242.865 36.3496 242.865 39.8664L242.774 41.7481H242.761ZM231.175 32.7678C229.746 32.7678 228.564 33.1571 227.642 33.9488C226.719 34.7404 226.122 35.8175 225.849 37.1931H236.487C236.254 35.8564 235.669 34.7793 234.747 33.9747C233.825 33.1701 232.63 32.7678 231.175 32.7678Z" fill="#007C94"/>
<path d="M260.388 28.0311V33.9747C259.947 33.8839 259.518 33.845 259.141 33.845C257.258 33.845 255.855 34.3381 254.92 35.3244C253.985 36.3107 253.517 37.855 253.517 39.9703V51.6239H247.165V28.2128H253.023V31.2495C254.361 29.0823 256.569 27.9922 259.635 27.9922L260.388 28.0311Z" fill="#007C94"/>
<path d="M122.946 55.0887V64.9256H121.933V55.0887H122.946Z" fill="#007C94"/>
<path d="M132.714 60.7988V64.9127H131.727V60.6042C131.727 59.9683 131.584 59.4622 131.286 59.0988C130.987 58.7355 130.545 58.5538 129.948 58.5538C129.35 58.5538 128.87 58.7484 128.493 59.1377C128.116 59.5271 127.921 60.0591 127.921 60.721V64.9127H126.934V57.866H127.882V58.9431C128.337 58.1125 129.077 57.6973 130.117 57.6973C131.234 57.6973 132 58.1515 132.416 59.0599C132.636 58.6835 132.961 58.3591 133.39 58.0996C133.819 57.84 134.325 57.7102 134.897 57.7102C135.715 57.7102 136.352 57.9698 136.806 58.4759C137.261 58.995 137.482 59.6439 137.482 60.4225V64.9256H136.494V60.6172C136.494 59.9943 136.352 59.4881 136.053 59.1248C135.767 58.7614 135.325 58.5667 134.728 58.5667C134.13 58.5667 133.663 58.7614 133.273 59.1507C132.883 59.54 132.701 60.0981 132.701 60.8118L132.714 60.7988Z" fill="#007C94"/>
<path d="M142.223 63.6409V67.7936H141.235V57.866H142.184V59.1637C142.742 58.1904 143.625 57.6973 144.859 57.6973C145.899 57.6973 146.717 58.0606 147.314 58.7744C147.912 59.4881 148.198 60.3706 148.198 61.3958C148.198 62.421 147.899 63.2905 147.314 64.0042C146.717 64.718 145.912 65.0814 144.859 65.0814C143.625 65.0814 142.755 64.6012 142.223 63.6409ZM142.197 61.3958C142.197 62.1874 142.417 62.8493 142.859 63.3943C143.301 63.9264 143.911 64.1989 144.678 64.1989C145.444 64.1989 146.054 63.9264 146.509 63.3943C146.964 62.8622 147.198 62.2004 147.198 61.3958C147.198 60.5912 146.964 59.9294 146.509 59.3843C146.054 58.8522 145.444 58.5797 144.678 58.5797C143.911 58.5797 143.301 58.8522 142.859 59.3713C142.417 59.9034 142.197 60.5782 142.197 61.3828V61.3958Z" fill="#007C94"/>
<path d="M154.901 57.814V58.7354C154.784 58.7354 154.68 58.7225 154.55 58.7225C153.927 58.7225 153.407 58.9041 153.03 59.2805C152.654 59.6568 152.446 60.2019 152.446 60.9026V64.8997H151.458V57.853H152.407V58.9431C152.576 58.6446 152.848 58.3721 153.225 58.1385C153.602 57.9049 154.082 57.7881 154.667 57.7881H154.901V57.814Z" fill="#007C94"/>
<path d="M163.734 61.6813H157.862C157.914 62.421 158.161 63.0309 158.616 63.4981C159.07 63.9653 159.655 64.1989 160.382 64.1989C160.915 64.1989 161.37 64.0562 161.772 63.7836C162.175 63.5111 162.448 63.1477 162.604 62.7065H163.63C163.422 63.4073 163.019 63.9783 162.448 64.4195C161.876 64.8608 161.175 65.0814 160.369 65.0814C159.291 65.0814 158.447 64.718 157.823 64.0042C157.2 63.2905 156.888 62.408 156.888 61.3828C156.888 60.3576 157.213 59.5011 157.849 58.7744C158.486 58.0477 159.33 57.6973 160.356 57.6973C161.383 57.6973 162.201 58.0347 162.824 58.7225C163.448 59.4103 163.76 60.2668 163.76 61.292V61.6683L163.734 61.6813ZM160.33 58.5927C159.668 58.5927 159.109 58.8133 158.668 59.2416C158.226 59.6698 157.966 60.2149 157.875 60.8897H162.746C162.682 60.2019 162.435 59.6439 162.006 59.2286C161.577 58.8133 161.019 58.6057 160.33 58.6057V58.5927Z" fill="#007C94"/>
<path d="M169.28 65.0814C168.332 65.0814 167.617 64.8608 167.15 64.4065C166.682 63.9653 166.422 63.3943 166.383 62.7065H167.384C167.422 63.1737 167.604 63.55 167.916 63.8096C168.241 64.0821 168.695 64.2119 169.28 64.2119C169.865 64.2119 170.319 64.1081 170.644 63.8875C170.969 63.6668 171.137 63.3813 171.137 63.018C171.137 62.6546 170.982 62.3691 170.683 62.1874C170.384 62.0057 170.02 61.8889 169.592 61.8241C169.163 61.7592 168.734 61.6813 168.306 61.5905C167.877 61.4996 167.513 61.305 167.215 61.0195C166.916 60.721 166.76 60.3057 166.76 59.7736C166.76 59.2026 166.994 58.7095 167.461 58.3072C167.929 57.9049 168.566 57.6973 169.371 57.6973C170.254 57.6973 170.917 57.9179 171.345 58.3721C171.774 58.8263 172.008 59.3454 172.073 59.9294H171.086C171.034 59.5271 170.878 59.1897 170.592 58.9431C170.306 58.6835 169.89 58.5667 169.358 58.5667C168.825 58.5667 168.423 58.6706 168.15 58.8912C167.864 59.1118 167.721 59.3843 167.721 59.7088C167.721 60.0072 167.838 60.2408 168.059 60.4095C168.28 60.5782 168.553 60.695 168.864 60.7729C169.176 60.8508 169.527 60.9286 169.903 61.0195C170.28 61.1103 170.631 61.1882 170.956 61.266C171.28 61.3439 171.553 61.5386 171.761 61.837C171.969 62.1485 172.086 62.5378 172.086 63.018C172.086 63.589 171.839 64.0821 171.358 64.4844C170.878 64.8867 170.176 65.0943 169.267 65.0943L169.28 65.0814Z" fill="#007C94"/>
<path d="M177.503 65.0814C176.554 65.0814 175.84 64.8608 175.372 64.4065C174.905 63.9653 174.645 63.3943 174.606 62.7065H175.606C175.645 63.1737 175.827 63.55 176.139 63.8096C176.463 64.0821 176.918 64.2119 177.503 64.2119C178.087 64.2119 178.542 64.1081 178.867 63.8875C179.191 63.6668 179.36 63.3813 179.36 63.018C179.36 62.6546 179.204 62.3691 178.905 62.1874C178.607 62.0057 178.243 61.8889 177.814 61.8241C177.386 61.7592 176.957 61.6813 176.528 61.5905C176.1 61.4996 175.736 61.305 175.437 61.0195C175.139 60.721 174.983 60.3057 174.983 59.7736C174.983 59.2026 175.216 58.7095 175.684 58.3072C176.152 57.9049 176.788 57.6973 177.594 57.6973C178.477 57.6973 179.139 57.9179 179.568 58.3721C179.997 58.8263 180.23 59.3454 180.295 59.9294H179.308C179.256 59.5271 179.1 59.1897 178.815 58.9431C178.529 58.6835 178.113 58.5667 177.581 58.5667C177.048 58.5667 176.645 58.6706 176.373 58.8912C176.087 59.1118 175.944 59.3843 175.944 59.7088C175.944 60.0072 176.061 60.2408 176.282 60.4095C176.502 60.5782 176.775 60.695 177.087 60.7729C177.399 60.8508 177.749 60.9286 178.126 61.0195C178.503 61.1103 178.854 61.1882 179.178 61.266C179.503 61.3439 179.776 61.5386 179.984 61.837C180.191 62.1485 180.308 62.5378 180.308 63.018C180.308 63.589 180.062 64.0821 179.581 64.4844C179.1 64.8867 178.399 65.0943 177.49 65.0943L177.503 65.0814Z" fill="#007C94"/>
<path d="M185.634 65.0814C184.816 65.0814 184.192 64.8997 183.763 64.5233C183.348 64.147 183.127 63.6279 183.127 62.979C183.127 61.7981 184.01 61.0844 185.777 60.8508L188.258 60.5263V60.3317C188.258 59.1378 187.595 58.5408 186.257 58.5408C185.127 58.5408 184.478 59.008 184.283 59.9423H183.296C183.4 59.2546 183.686 58.7095 184.179 58.3072C184.66 57.9049 185.374 57.6973 186.296 57.6973C187.271 57.6973 188.011 57.9309 188.505 58.411C188.998 58.8912 189.245 59.5271 189.245 60.3446V63.4333C189.245 64.1211 189.31 64.6142 189.453 64.9127H188.479C188.375 64.6401 188.323 64.2378 188.323 63.7058C187.79 64.6142 186.881 65.0814 185.621 65.0814H185.634ZM187.141 56.2957C186.868 56.2957 186.543 56.2049 186.167 56.0232C185.79 55.8415 185.504 55.7507 185.309 55.7507C184.984 55.7507 184.79 55.9194 184.725 56.2438H183.958C184.01 55.8415 184.153 55.5171 184.4 55.2835C184.647 55.0499 184.971 54.9331 185.361 54.9331C185.634 54.9331 185.946 55.0239 186.322 55.2056C186.699 55.3873 186.985 55.4782 187.18 55.4782C187.504 55.4782 187.699 55.3094 187.764 54.985H188.531C188.479 55.3873 188.336 55.7117 188.102 55.9453C187.868 56.1789 187.543 56.2957 187.141 56.2957ZM188.258 61.305L185.92 61.6164C185.27 61.6943 184.803 61.85 184.53 62.0836C184.244 62.3042 184.101 62.6027 184.101 62.979C184.101 63.4333 184.257 63.7707 184.569 63.9653C184.881 64.16 185.27 64.2638 185.738 64.2638C186.517 64.2638 187.141 64.0432 187.595 63.602C188.037 63.1607 188.271 62.6676 188.271 62.1225V61.305H188.258Z" fill="#007C94"/>
<path d="M196.051 65.0814C194.973 65.0814 194.116 64.718 193.454 63.9913C192.791 63.2645 192.466 62.3951 192.466 61.3958C192.466 60.3966 192.791 59.5141 193.454 58.7874C194.116 58.0606 194.986 57.6973 196.051 57.6973C197.117 57.6973 198 58.0606 198.662 58.7874C199.325 59.5141 199.65 60.3836 199.65 61.3958C199.65 62.408 199.325 63.2645 198.662 63.9913C198 64.718 197.13 65.0814 196.051 65.0814ZM193.454 61.3958C193.454 62.2004 193.7 62.8622 194.181 63.3943C194.662 63.9264 195.285 64.1859 196.051 64.1859C196.818 64.1859 197.454 63.9134 197.935 63.3943C198.416 62.8622 198.649 62.2004 198.649 61.3958C198.649 60.5912 198.403 59.9164 197.935 59.3843C197.454 58.8522 196.831 58.5927 196.051 58.5927C195.272 58.5927 194.649 58.8652 194.168 59.3843C193.687 59.9164 193.454 60.5912 193.454 61.3958Z" fill="#007C94"/>
<path d="M213.38 59.1507V57.8659H214.328V64.5752C214.328 65.5744 214.042 66.379 213.471 67.0149C212.899 67.6378 212.081 67.9623 211.029 67.9623C210.106 67.9623 209.366 67.7416 208.833 67.3004C208.288 66.8592 207.95 66.3271 207.82 65.7172H208.833C208.976 66.1325 209.236 66.4569 209.626 66.7035C210.015 66.95 210.496 67.0668 211.055 67.0668C211.769 67.0668 212.328 66.8592 212.73 66.4309C213.133 66.0157 213.341 65.4576 213.341 64.7958V63.4851C212.795 64.4324 211.925 64.9126 210.717 64.9126C209.704 64.9126 208.885 64.5622 208.288 63.8614C207.69 63.1606 207.392 62.3041 207.392 61.3179C207.392 60.3316 207.69 59.4751 208.288 58.7743C208.885 58.0735 209.691 57.7231 210.717 57.7231C211.951 57.7231 212.834 58.2033 213.38 59.1766V59.1507ZM212.704 63.2515C213.159 62.7324 213.38 62.0835 213.38 61.3049C213.38 60.5262 213.159 59.8774 212.704 59.3583C212.25 58.8392 211.652 58.5926 210.899 58.5926C210.145 58.5926 209.535 58.8522 209.08 59.3713C208.626 59.8904 208.392 60.5392 208.392 61.3049C208.392 62.0706 208.626 62.7324 209.08 63.2515C209.535 63.7706 210.145 64.0301 210.899 64.0301C211.652 64.0301 212.263 63.7706 212.704 63.2515Z" fill="#007C94"/>
<path d="M221.511 57.814V58.7354C221.394 58.7354 221.29 58.7225 221.16 58.7225C220.537 58.7225 220.017 58.9041 219.641 59.2805C219.264 59.6568 219.056 60.2019 219.056 60.9026V64.8997H218.069V57.853H219.017V58.9431C219.186 58.6446 219.459 58.3721 219.835 58.1385C220.212 57.9049 220.693 57.7881 221.277 57.7881H221.511V57.814Z" fill="#007C94"/>
<path d="M226.174 65.0813C225.356 65.0813 224.733 64.8997 224.304 64.5233C223.888 64.147 223.667 63.6279 223.667 62.979C223.667 61.7981 224.551 61.0843 226.317 60.8507L228.798 60.5263V60.3316C228.798 59.1377 228.136 58.5408 226.798 58.5408C225.668 58.5408 225.018 59.008 224.824 59.9423H223.836C223.94 59.2545 224.226 58.7095 224.72 58.3072C225.2 57.9049 225.915 57.6972 226.837 57.6972C227.811 57.6972 228.552 57.9308 229.045 58.411C229.539 58.8912 229.786 59.527 229.786 60.3446V63.4332C229.786 64.121 229.85 64.6142 229.993 64.9126H229.019C228.915 64.6401 228.863 64.2378 228.863 63.7057C228.331 64.6142 227.421 65.0813 226.161 65.0813H226.174ZM228.811 61.3049L226.473 61.6164C225.824 61.6943 225.356 61.85 225.083 62.0836C224.798 62.3042 224.655 62.6027 224.655 62.979C224.655 63.4332 224.811 63.7706 225.122 63.9653C225.434 64.16 225.824 64.2638 226.291 64.2638C227.071 64.2638 227.694 64.0432 228.149 63.6019C228.591 63.1607 228.824 62.6676 228.824 62.1225V61.3049H228.811ZM227.149 54.401H228.214L227.149 56.7499H226.239L227.149 54.401Z" fill="#007C94"/>
<path d="M233.877 57.8659V56.698C233.877 55.9712 234.072 55.4392 234.449 55.0758C234.825 54.7124 235.332 54.5308 235.969 54.5308L236.436 54.5567V55.4522C236.345 55.4392 236.215 55.4262 236.046 55.4262C235.644 55.4262 235.345 55.53 235.15 55.7117C234.955 55.9064 234.851 56.2178 234.851 56.659V57.8659H236.449V58.6965H234.851V64.9126H233.864V58.6965H232.487V57.8659H233.864H233.877ZM238.411 56.127C238.203 56.127 238.034 56.0621 237.904 55.9453C237.774 55.8155 237.709 55.6598 237.709 55.4522C237.709 55.2445 237.774 55.0758 237.904 54.946C238.034 54.8163 238.203 54.7514 238.411 54.7514C238.618 54.7514 238.787 54.8163 238.917 54.946C239.047 55.0758 239.112 55.2445 239.112 55.4522C239.112 55.6598 239.047 55.8155 238.917 55.9453C238.787 56.0751 238.618 56.127 238.411 56.127ZM237.917 64.9256V57.8789H238.904V64.9256H237.917Z" fill="#007C94"/>
<path d="M243.346 63.9913C242.71 63.2645 242.385 62.3951 242.385 61.3958C242.385 60.3966 242.71 59.5271 243.346 58.7874C243.983 58.0606 244.827 57.6973 245.866 57.6973C246.776 57.6973 247.516 57.9568 248.088 58.4629C248.659 58.982 249.023 59.6049 249.166 60.3706H248.166C248.023 59.8126 247.75 59.3843 247.347 59.0599C246.945 58.7355 246.451 58.5797 245.866 58.5797C245.126 58.5797 244.529 58.8393 244.074 59.3713C243.619 59.9034 243.385 60.5653 243.385 61.3958C243.385 62.2264 243.619 62.8752 244.074 63.4073C244.529 63.9394 245.126 64.1989 245.866 64.1989C246.464 64.1989 246.958 64.0432 247.347 63.7187C247.75 63.3943 248.023 62.9661 248.166 62.408H249.166C249.023 63.1607 248.659 63.7966 248.088 64.3157C247.516 64.8218 246.776 65.0814 245.866 65.0814C244.827 65.0814 243.996 64.718 243.346 63.9913Z" fill="#007C94"/>
<path d="M254.232 65.0814C253.413 65.0814 252.79 64.8997 252.361 64.5233C251.945 64.147 251.725 63.6279 251.725 62.979C251.725 61.7981 252.608 61.0843 254.374 60.8508L256.855 60.5263V60.3317C256.855 59.1378 256.193 58.5408 254.855 58.5408C253.725 58.5408 253.076 59.008 252.881 59.9423H251.893C251.997 59.2545 252.283 58.7095 252.777 58.3072C253.257 57.9049 253.972 57.6973 254.894 57.6973C255.868 57.6973 256.609 57.9309 257.102 58.411C257.596 58.8912 257.843 59.5271 257.843 60.3446V63.4332C257.843 64.121 257.908 64.6142 258.051 64.9127H257.076C256.972 64.6401 256.92 64.2378 256.92 63.7058C256.388 64.6142 255.479 65.0814 254.219 65.0814H254.232ZM256.868 61.305L254.53 61.6164C253.881 61.6943 253.413 61.85 253.14 62.0836C252.855 62.3042 252.712 62.6027 252.712 62.979C252.712 63.4332 252.868 63.7707 253.179 63.9653C253.491 64.16 253.881 64.2638 254.349 64.2638C255.128 64.2638 255.751 64.0432 256.206 63.6019C256.648 63.1607 256.881 62.6676 256.881 62.1225V61.305H256.868Z" fill="#007C94"/>
</svg>
