<?xml version="1.0" encoding="utf-8"?>
<!-- Generator: Adobe Illustrator 26.5.1, SVG Export Plug-In . SVG Version: 6.00 Build 0)  -->
<svg version="1.1" id="Camada_1" xmlns="http://www.w3.org/2000/svg" xmlns:xlink="http://www.w3.org/1999/xlink" x="0px" y="0px"
	 viewBox="0 0 21 21" style="enable-background:new 0 0 21 21;" xml:space="preserve">
<style type="text/css">
	.st0{fill:none;stroke:#FFFFFF;stroke-width:2;stroke-linecap:round;stroke-linejoin:round;}
</style>
<path class="st0" d="M9.2,5.3l-3-3.5c-0.4-0.4-1-0.4-1.4,0L2.2,4.3c-0.7,0.7-1,1.9-0.5,2.7c2.6,5.3,6.9,9.6,12.2,12.2
	c0.9,0.4,2,0.2,2.7-0.5l2.5-2.5c0.4-0.4,0.4-1.1,0-1.4l-3.5-3c-0.4-0.3-0.9-0.3-1.3,0.1l-1.2,1.2c-0.1,0.1-0.1,0.1-0.2,0.1
	c-0.1,0-0.2,0-0.3,0c-2-1.2-3.7-2.8-4.8-4.8c0-0.1-0.1-0.2,0-0.3c0-0.1,0.1-0.2,0.1-0.2l1.2-1.2C9.5,6.3,9.5,5.7,9.2,5.3z"/>
</svg>
