<svg width="23" height="19" viewBox="0 0 23 19" fill="none" xmlns="http://www.w3.org/2000/svg">
<g clip-path="url(#clip0_2_11)">
<path d="M6.32456 2.1875C6.32456 3.11914 5.55191 3.875 4.59956 3.875C3.64722 3.875 2.87456 3.11914 2.87456 2.1875C2.87456 1.25586 3.64722 0.5 4.59956 0.5C5.55191 0.5 6.32456 1.25586 6.32456 2.1875ZM5.17456 8.99727V11.2859L7.00737 13.0789C7.26253 13.3285 7.43144 13.6484 7.48894 13.9965L8.03519 17.1922C8.13941 17.8039 7.71534 18.384 7.09003 18.4859C6.46472 18.5879 5.87175 18.173 5.76753 17.5613L5.25362 14.5414L2.40019 11.75C1.96894 11.3281 1.72456 10.7551 1.72456 10.1574V7.06016C1.72456 5.92109 2.66612 5 3.8305 5C4.69659 5 5.50159 5.42188 5.98316 6.125L7.68659 8.62461L8.04956 8.80039V6.125C8.04956 5.50273 8.56347 5 9.19956 5H13.7996C14.4357 5 14.9496 5.50273 14.9496 6.125V8.80391L15.3125 8.62813L17.016 6.125C17.4939 5.42188 18.3025 5 19.1686 5C20.333 5 21.2746 5.92109 21.2746 7.06016V10.1574C21.2746 10.7551 21.0338 11.3281 20.6025 11.75L17.7491 14.5414L17.2352 17.5613C17.131 18.173 16.538 18.5879 15.9127 18.4859C15.2874 18.384 14.8633 17.8039 14.9675 17.1922L15.5138 13.9965C15.5713 13.6484 15.7402 13.3285 15.9953 13.0789L17.8282 11.2859V8.99727L17.1453 9.99922C16.98 10.2453 16.75 10.4422 16.4805 10.5723L14.3386 11.6199C14.2524 11.6656 14.1625 11.6973 14.0655 11.7184C13.9721 11.7395 13.875 11.75 13.7816 11.7465H9.22472C9.13487 11.75 9.04503 11.7395 8.95519 11.7219C8.85097 11.7008 8.75394 11.6656 8.66409 11.6164L6.52581 10.5687C6.25628 10.4387 6.02987 10.2383 5.86097 9.9957L5.17816 8.99375L5.17456 8.99727ZM0.0822179 16.9566L1.80003 12.7555L3.56816 14.4852L2.21691 17.7898C1.97972 18.3664 1.31128 18.6477 0.721905 18.4156C0.13253 18.1836 -0.15497 17.5332 0.0822179 16.9566ZM18.3996 3.875C17.4472 3.875 16.6746 3.11914 16.6746 2.1875C16.6746 1.25586 17.4472 0.5 18.3996 0.5C19.3519 0.5 20.1246 1.25586 20.1246 2.1875C20.1246 3.11914 19.3519 3.875 18.3996 3.875ZM21.1991 12.7555L22.9169 16.9566C23.1541 17.5332 22.8666 18.1871 22.2772 18.4191C21.6878 18.6512 21.0194 18.3699 20.7822 17.7934L19.431 14.4887L21.1991 12.759V12.7555Z" fill="#037F8C"/>
</g>
<defs>
<clipPath id="clip0_2_11">
<rect width="23" height="18" fill="white" transform="translate(0 0.5)"/>
</clipPath>
</defs>
</svg>
